<svg xmlns="http://www.w3.org/2000/svg" xmlns:xlink="http://www.w3.org/1999/xlink" viewBox="0 0 1600 1200" id="mechanic-working-in-service-center"><defs><linearGradient id="a" x1="449.97" x2="545.49" y1="798.23" y2="795.66" gradientUnits="userSpaceOnUse"><stop offset="0" stop-color="#cfd5f7"></stop><stop offset="1" stop-color="#bcc2e6"></stop></linearGradient><linearGradient id="j" x1="515.83" x2="554.27" y1="748.08" y2="746.33" xlink:href="#a"></linearGradient><linearGradient id="k" x1="523.1" x2="559.8" y1="436.49" y2="436.49" xlink:href="#a"></linearGradient><linearGradient id="b" x1="421.93" x2="594.43" y1="165.84" y2="165.84" gradientUnits="userSpaceOnUse"><stop offset="0" stop-color="#f4f4fc"></stop><stop offset="1" stop-color="#bcc2e6"></stop></linearGradient><linearGradient id="l" x1="554.29" x2="969.92" y1="906.47" y2="906.47" xlink:href="#a"></linearGradient><linearGradient id="m" x1="554.29" x2="969.92" y1="900.61" y2="900.61" xlink:href="#b"></linearGradient><linearGradient id="c" x1="559.34" x2="559.34" y1="2690.14" y2="2365.35" gradientTransform="matrix(1 -.58 0 1 0 -1692.37)" gradientUnits="userSpaceOnUse"><stop offset="0" stop-color="#d0d4f9"></stop><stop offset="1" stop-color="#636c9e"></stop></linearGradient><linearGradient id="n" x1="711.54" x2="811.57" y1="571.09" y2="572.32" xlink:href="#c"></linearGradient><linearGradient id="o" x1="711.54" x2="811.57" y1="563.68" y2="564.91" xlink:href="#b"></linearGradient><linearGradient id="p" x1="994.99" x2="1008.56" y1="500.25" y2="500.42" xlink:href="#c"></linearGradient><linearGradient id="q" x1="1187.98" x2="816.03" y1="952.48" y2="609.59" gradientUnits="userSpaceOnUse"><stop offset="0" stop-color="#fff"></stop><stop offset=".2" stop-color="#fcfcfd"></stop><stop offset=".36" stop-color="#f2f2f7"></stop><stop offset=".5" stop-color="#e1e2ec"></stop><stop offset=".64" stop-color="#c9ccdd"></stop><stop offset=".78" stop-color="#aaafca"></stop><stop offset=".9" stop-color="#858cb3"></stop><stop offset="1" stop-color="#636c9e"></stop></linearGradient><linearGradient id="d" x1="8388.63" x2="8415.92" y1="793.1" y2="579.27" gradientTransform="scale(1 -1) rotate(-35.6 2268.3 12254.94)" gradientUnits="userSpaceOnUse"><stop offset="0" stop-color="#ff5a72"></stop><stop offset="1" stop-color="#feae6e"></stop></linearGradient><linearGradient id="r" x1="-8935.29" x2="-8908" y1="10614.02" y2="10400.18" gradientTransform="scale(-1 1) rotate(83 807.493 10382.818)" xlink:href="#d"></linearGradient><linearGradient id="s" x1="487" x2="508.17" y1="840.37" y2="747.9" xlink:href="#d"></linearGradient><linearGradient id="e" x1="-6021.24" x2="-6028.18" y1="733.08" y2="1060.02" gradientTransform="matrix(-1 0 0 1 -5529.84 0)" gradientUnits="userSpaceOnUse"><stop offset="0" stop-color="#060180"></stop><stop offset="1" stop-color="#2b2cb2"></stop></linearGradient><linearGradient id="t" x1="-6023.01" x2="-6029.87" y1="752.12" y2="1075.35" xlink:href="#e"></linearGradient><linearGradient id="f" x1="-8910.07" x2="-8870.31" y1="1607.56" y2="1607.56" gradientTransform="matrix(-.99 .17 .17 .99 -8520 583.62)" gradientUnits="userSpaceOnUse"><stop offset="0" stop-color="#feae6e"></stop><stop offset="1" stop-color="#ff5a72"></stop></linearGradient><linearGradient id="u" x1="-8893.62" x2="-8838.81" y1="1618.46" y2="1618.46" xlink:href="#f"></linearGradient><linearGradient id="v" x1="9339.2" x2="9360.37" y1="5513.08" y2="5420.61" gradientTransform="matrix(.62 -.79 .79 .62 -9481.33 4711.49)" xlink:href="#d"></linearGradient><linearGradient id="w" x1="1810.14" x2="1831.31" y1="11557.18" y2="11464.7" gradientTransform="rotate(-92.08 -3991.379 6746.13)" xlink:href="#d"></linearGradient><linearGradient id="h" x1="500.02" x2="550.23" y1="342.81" y2="342.81" gradientUnits="userSpaceOnUse"><stop offset="0" stop-color="#191468"></stop><stop offset="1" stop-color="#383097"></stop></linearGradient><linearGradient id="x" x1="614.72" x2="629.38" y1="683.93" y2="670.16" xlink:href="#c"></linearGradient><linearGradient id="y" x1="680.02" x2="695.26" y1="665.31" y2="636" xlink:href="#c"></linearGradient><linearGradient id="g" x1="658.6" x2="744.58" y1="686.42" y2="624.67" gradientUnits="userSpaceOnUse"><stop offset="0" stop-color="#f7f9fc"></stop><stop offset=".52" stop-color="#d0d4f9"></stop><stop offset="1" stop-color="#636c9e"></stop></linearGradient><linearGradient id="z" x1="1048.31" x2="1062.96" y1="421.14" y2="407.37" xlink:href="#c"></linearGradient><linearGradient id="A" x1="1113.6" x2="1128.85" y1="402.52" y2="373.21" xlink:href="#c"></linearGradient><linearGradient id="B" x1="1092.18" x2="1178.17" y1="423.63" y2="361.88" xlink:href="#g"></linearGradient><linearGradient id="C" x1="1307.14" x2="709.17" y1="689.85" y2="372.11" xlink:href="#h"></linearGradient><linearGradient id="D" x1="1479.55" x2="548.55" y1="150.98" y2="401.9" xlink:href="#h"></linearGradient><linearGradient id="E" x1="632.79" x2="608.26" y1="601.22" y2="609.3" xlink:href="#d"></linearGradient><linearGradient id="F" x1="428.06" x2="352.74" y1="454.09" y2="478.39" xlink:href="#d"></linearGradient><linearGradient id="G" x1="1487.85" x2="556.89" y1="181.84" y2="432.75" gradientTransform="rotate(25.13 956.968 324.86)" xlink:href="#h"></linearGradient><linearGradient id="H" x1="404.25" x2="482.99" y1="617.66" y2="617.66" xlink:href="#a"></linearGradient><linearGradient id="I" x1="353.11" x2="367.96" y1="561.84" y2="572.2" xlink:href="#d"></linearGradient><linearGradient id="J" x1="519" x2="565.96" y1="694.52" y2="694.52" xlink:href="#d"></linearGradient><linearGradient id="i" x1="625.02" x2="770.04" y1="646.03" y2="646.03" gradientUnits="userSpaceOnUse"><stop offset="0" stop-color="#191468"></stop><stop offset="0" stop-color="#191468"></stop><stop offset=".2" stop-color="#2a2382"></stop><stop offset=".37" stop-color="#342d92"></stop><stop offset=".51" stop-color="#383097"></stop><stop offset=".65" stop-color="#352d93"></stop><stop offset=".8" stop-color="#2c2685"></stop><stop offset=".96" stop-color="#1e1970"></stop><stop offset="1" stop-color="#191468"></stop></linearGradient><linearGradient id="K" x1="1041.83" x2="1180.55" y1="392.31" y2="392.31" xlink:href="#i"></linearGradient><linearGradient id="L" x1="644.46" x2="1156.66" y1="1087.01" y2="1028.68" xlink:href="#c"></linearGradient><linearGradient id="M" x1="739.4" x2="1146.62" y1="1042.37" y2="997.83" gradientUnits="userSpaceOnUse"><stop offset="0" stop-color="#eeeef6"></stop><stop offset="1" stop-color="#b6bce0"></stop></linearGradient><linearGradient id="N" x1="948.22" x2="986.66" y1="998.62" y2="996.88" xlink:href="#a"></linearGradient><linearGradient id="O" x1="955.49" x2="992.19" y1="687.03" y2="687.03" xlink:href="#a"></linearGradient><linearGradient id="P" x1="854.32" x2="1026.83" y1="416.39" y2="416.39" xlink:href="#b"></linearGradient><linearGradient id="Q" x1="1015.05" x2="938.28" y1="789.39" y2="744.07" xlink:href="#d"></linearGradient><linearGradient id="R" x1="1041.29" x2="964.53" y1="804.4" y2="759.08" xlink:href="#d"></linearGradient><linearGradient id="S" x1="1126.71" x2="946.51" y1="922.8" y2="774.16" xlink:href="#d"></linearGradient><linearGradient id="T" x1="1009.67" x2="1020.44" y1="814.05" y2="793.15" xlink:href="#h"></linearGradient><linearGradient id="U" x1="1012.63" x2="1022.92" y1="832.7" y2="801.19" xlink:href="#h"></linearGradient><linearGradient id="V" x1="1009.66" x2="1020.44" y1="782.2" y2="761.31" xlink:href="#h"></linearGradient><linearGradient id="W" x1="1012.63" x2="1022.92" y1="800.86" y2="769.35" xlink:href="#h"></linearGradient></defs><g data-name="Ñëîé 1"><path fill="#636c9e" d="M816 1059.53v6.37c.23 3.42 2.55 6.8 7 9.4L884.23 1111c9.36 5.45 24.68 5.49 34.06.07l191.34-109.93c4.71-2.72 7.06-6.32 7-9.91v-5.78zM918.22 1031.41l51.7-29.85L606.1 791.5l71.14-40.88c4.71-2.71 7.06-6.31 7-9.9v-5.78L383.57 809v6.38c.22 3.42 2.55 6.8 7 9.39l61.27 35.74c9.36 5.45 24.68 5.48 34.06.07l68.39-39.29S918.22 1031.41 918.22 1031.41z"></path><path fill="url(#a)" d="M684.29,730v5.78c0,3.59-2.34,7.19-7,9.9L485.9,855.61c-9.38,5.42-24.7,5.38-34.06-.07l-61.27-35.73c-4.45-2.6-6.78-6-7-9.39,0,0,0-6.39,0-6.39Z"></path><path fill="#f9f9f9" d="M451.84,849.68c9.36,5.46,24.68,5.49,34.06.08L677.24,739.82c9.38-5.41,9.4-14.31,0-19.76L616,684.33c-9.36-5.46-24.68-5.49-34.06-.08L390.62,794.19c-9.38,5.41-9.4,14.31-.05,19.76Z"></path><path fill="url(#j)" d="M590.87,704.05v61.79c0,2.36-1.53,4.71-4.62,6.49l-35.57,20.51c-6.15,3.54-16.19,3.52-22.32-.05l-40.15-23.42c-2.92-1.7-4.45-3.92-4.58-6.15,0,0,0-62.18,0-62.18Z"></path><path fill="#eeeef6" d="M528.36,731c6.13,3.58,16.17,3.6,22.32,0l35.57-20.5c6.15-3.55,6.16-9.38,0-13l-40.15-23.42c-6.13-3.57-16.17-3.6-22.32,0l-35.58,20.5c-6.14,3.55-6.15,9.38,0,13Z"></path><path fill="url(#k)" d="M580.22,150.47V701.16c0,1.89-1.23,3.78-3.7,5.21L548,722.8c-4.93,2.84-13,2.82-17.89,0L497.94,704c-2.34-1.36-3.56-3.14-3.66-4.93,0,0,0-551,0-551Z"></path><path fill="#f9f9f9" d="M530.12,172c4.91,2.86,13,2.88,17.89,0l28.51-16.43c4.93-2.85,4.94-7.52,0-10.38l-32.17-18.77c-4.92-2.87-13-2.88-17.89,0L498,142.88c-4.93,2.85-4.94,7.52,0,10.38Z"></path><path fill="url(#b)" d="M590.87,146.69v11.68c0,2.36-1.53,4.71-4.62,6.49l-35.57,20.51c-6.15,3.54-16.19,3.52-22.32-.05L488.21,161.9c-2.92-1.7-4.45-3.92-4.58-6.15,0,0,0-12.07,0-12.07Z"></path><path fill="#f4f4fc" d="M528.36,173.59c6.13,3.58,16.17,3.6,22.32,0l35.57-20.5c6.15-3.55,6.16-9.38,0-12.95l-40.15-23.42c-6.13-3.57-16.17-3.6-22.32,0l-35.58,20.51c-6.14,3.54-6.15,9.37,0,13Z"></path><path fill="#f9f9f9" d="M487.14,152l40.15,23.41a26.73,26.73,0,0,0,24.45.06L587.31,155a13.2,13.2,0,0,0,3.56-2.88v-5.4c0,2.34-1.55,4.68-4.62,6.45l-35.57,20.5a24.62,24.62,0,0,1-22.32,0l-40.15-23.41c-3.07-1.79-4.6-4.14-4.59-6.49v5.45A13.5,13.5,0,0,0,487.14,152Z"></path><polygon fill="url(#l)" points="918.22 1026.46 554.28 816.34 554.28 810.47 605.99 786.49 969.92 996.61 918.22 1026.46"></polygon><polygon fill="url(#m)" points="918.22 1020.59 554.28 810.47 605.99 780.62 969.92 990.74 918.22 1020.59"></polygon><polygon fill="url(#c)" points="566.81 694.72 551.86 703.35 551.86 211.79 566.81 203.16 566.81 694.72"></polygon><polygon fill="url(#n)" points="940.89 576.4 594.81 593.41 638.26 567.7 984.34 550.69 940.89 576.4"></polygon><polygon fill="url(#o)" points="940.89 569 594.81 586 638.26 560.29 984.34 543.28 940.89 569"></polygon><polygon fill="url(#p)" points="997.27 543.28 1032.49 457.71 1002.62 457.71 978.75 536.34 997.27 543.28"></polygon><path d="M1243.19,470.05v533.52c-43.93,27.17-85,50.7-116.12,65-15.58,5-52.33,16.54-101.08,1.87l-25-6.86-5.81-1.59-5-1.37-1.91-.54-82.64-22.63-9.54-2.59-37.84-10.35-180-49.34.09-.14A199,199,0,0,1,641.89,960c-43.43-23.12-85.55-55-109.35-78.64-1.41-1.36-2.77-2.77-4-4.08-7.36-7.73-12.5-14.41-14.68-19.31a11.48,11.48,0,0,1-1.22-4.59V837.71c1-1.68,2.09-3.45,3.31-5.22,2.46-3.68,5.32-7.64,8.63-11.72,4-5,8.64-10.41,13.77-16,3.27-3.54,6.72-7.18,10.45-11,3.9-4,8.08-8.13,12.45-12.4,7.31-7,15.21-14.4,23.66-21.94,2-1.78,4-3.59,6-5.36.55-.5,1.14-1,1.68-1.5,2.64-2.32,5.27-4.64,8-7,1.72-1.5,3.5-3,5.31-4.54q10.64-9.13,22-18.54c2.86-2.36,5.72-4.77,8.67-7.13,4.5-3.68,9-7.36,13.68-11.08q13.14-10.5,26.94-21.22a.87.87,0,0,0,.22-.18c1.64-1.27,3.32-2.55,5-3.86.64-.5,1.27-1,2-1.5s1.37-1,2.09-1.59q11.73-9.06,23.85-18.13,14.73-11,29.85-22.12,4.1-2.94,8.18-6c1.63-1.18,3.22-2.37,4.86-3.5,5.36-3.91,10.72-7.77,16.13-11.63,15.22-10.86,30.52-21.58,45.79-32,3.91-2.68,7.77-5.36,11.68-8q13-8.87,25.89-17.45l12.08-8c21.31-14,42.12-27.34,61.88-39.47,1.41-.91,2.77-1.73,4.13-2.55l.77-.5c19.18-11.76,37.3-22.39,53.93-31.66.73-.41,1.41-.77,2.13-1.18,4.14-2.32,8.23-4.5,12.18-6.64,4.41-2.36,8.68-4.58,12.81-6.72,1.82-.95,3.64-1.86,5.36-2.72q8.73-4.36,16.49-7.91c.77-.36,1.55-.68,2.32-1,2.72-1.23,5.36-2.37,7.9-3.41,4.14-1.73,8-3.18,11.54-4.41,9.82-3.41,17.31-4.95,22.13-4.27,19.21,2.64,92.13,8.09,127.38,21.17Z" style="mix-blend-mode:multiply" fill="url(#q)" opacity=".3"></path><path fill="#fdd1d0" d="M554,701.47a4.4,4.4,0,0,0-1-.91,7.92,7.92,0,0,0-.93-1.9c-2.24-3.35-7.1-13-5.06-13.63,1.24-.41,1.72.76,2.53,1.86-.77-5.4-.26-10.8,4.06-12.76a4.52,4.52,0,0,1,2.54-.5c3.88.29,5.41,5.79,5.33,13.69a131,131,0,0,0,.84,14.74C559.4,703,555.75,703.66,554,701.47Z"></path><path fill="url(#d)" d="M529.11,753.31c5.61,7.26,10.63,18,19.38,4s13.27-51.1,14-55.86S553,693.08,551,697c-5,9.64-18.09,35.68-26,51.51A24.33,24.33,0,0,1,529.11,753.31Z"></path><path fill="url(#r)" d="M457.86,751c-1.13,5.68,2.77,19,35.61,17.59s50.69-3.45,52.31-6.38,8.81-22.4-22.74-22.35C503.45,739.89,461.36,733.37,457.86,751Z"></path><path fill="#0a0a71" d="M512.71 1079.55c10.27-5.54 26.5-3.08 35.53-2.67s8.83 8.22 2.06 12.73-16.23 7.6-25.06 10.89-22 6.37-22-5.34A16.76 16.76 0 01512.71 1079.55zM466.91 1060.5c10.27-5.54 26.49-3.08 35.53-2.67s8.83 8.22 2.05 12.73-16.22 7.6-25.05 10.89-22 6.37-22-5.34A16.76 16.76 0 01466.91 1060.5z"></path><path fill="url(#s)" d="M530.58,763.27c-14.16-11-71.92-44.27-76.41-2.41s2.42,104.46,1.69,112.49,34.59,33.39,70.87,17.66C527.37,873.67,550.49,778.74,530.58,763.27Z"></path><path fill="url(#e)" d="M464.92,1065.8c6.1,12.2,18-.24,18-.24l10.27-76.63L494.86,932l9.64,67.74s4.92,74.92,6.2,86.8c7.17,8.67,16.16,1.17,16.16,1.17l5.68-86.36V853L455.8,873.15l10.06,116.1S463,1047.18,464.92,1065.8Z"></path><path fill="url(#t)" d="M536.33,826.69c-3.38,27.75-9.28,55.67-9.6,64.32-36.28,15.73-71.6-9.63-70.87-17.66.58-6.36-3.64-47-3.18-84.43a13.73,13.73,0,0,0,1.9-4.64,86.32,86.32,0,0,1,16.27-43.59,25.52,25.52,0,0,1,12.21.27,43.93,43.93,0,0,0-5.72,4.18c-3,2.46-10.09,12.41-10.09,34.67,7.92,9.63,27.4,8.78,27.4,8.78,3.55-25.87,12.19-30.16,18-36.55,2.62,1.39,5.1,2.8,7.37,4.17-9.4,11.17-12.23,35.71-11.11,47.55C510,814.3,528.34,823.27,536.33,826.69Z"></path><path fill="#f4bebe" d="M510.21,735.91A35.77,35.77,0,0,0,512,751.77c-8.59.56-18.6,3.22-25.26-1.92-9.89-7.64-4.07-7.28-1.5-10.49,3.69-4.61,1.42-7.84,1.42-7.84Z"></path><path fill="#fdd1d0" d="M514.08,697s5.32,19.94,5.41,29.48-1.66,13.3-13,12.84-33.31-9.57-32.2-18.44S489.27,680,514.08,697Z"></path><path fill="#0a0a71" d="M518.78,693.75c2.31,8.84-3.24,13.57-6.4,17l-3.16,3.46s4.67,11.26-2.83,20.83-12.36,9.74-21,6.65S470.86,730,470,720.38s-2.93-28,14.81-34.74S515.15,679.84,518.78,693.75Z"></path><path fill="#fdd1d0" d="M510.85,723.91s-2.26-7.6-5.83-4.15-3.18,11,1.77,12.4S514.38,729.83,510.85,723.91Z"></path><path fill="url(#f)" d="M515.47,704.8l13.15-15.58s9.9-9-1.6-15.26-17.88-3.78-21.45-.5-12.89,9.94-12.89,9.94Z"></path><path fill="url(#u)" d="M511.91,712.44c-6.56,7.18-16.1,17.21-35.82,12.12-17.39-4.49-10.73-31.88-.21-38.57,6.42-4.07,23.19-13.62,36.68-1.34S511.91,712.44,511.91,712.44Z"></path><path fill="#fdd1d0" d="M586.32,696.78a4.36,4.36,0,0,0-1.08-.81,7.71,7.71,0,0,0-1.1-1.8c-2.54-3.13-8.28-12.25-6.32-13.1,1.21-.53,1.79.59,2.7,1.61-.74-2.69-1.21-3.25,2.91-5.61a4.62,4.62,0,0,1,2.49-.74c3.88-.07,6.08,1.73,6.51,5.66.64,5.73,1.64,11.76,2.23,14.6C591.85,697.76,588.29,698.8,586.32,696.78Z"></path><path fill="url(#v)" d="M586.16,751.32c8.06,4.38,17,12.15,19.35-4.13s-8.49-52.11-9.71-56.77-12.11-3.85-12.39.53c-.69,10.84-2.14,39.95-2.95,57.61A24.28,24.28,0,0,1,586.16,751.32Z"></path><path fill="url(#w)" d="M518.72,782.33c1.43,5.61,10.68,15.95,39.71.55S602.7,758,602.9,754.6s-1.69-24-30.15-10.38C555.09,752.67,514.29,764.9,518.72,782.33Z"></path><path fill="#191468" d="M551.57,687.25c-16.64,1.79-56.05-3.9-125.32-55.56-49.95-37.25-64.61-70.57-68.9-86.26v33c15.67,22.9,41.14,52.52,64.17,69.3,54.94,40,106,52.78,128.4,57.45S569.73,685.31,551.57,687.25Z"></path><path fill="url(#h)" d="M547.85,364.22s-48.05-21.46-47.83-38,31.38,3.62,36.58,7.91,10.17,19.51,10.17,19.51l3.46,2.43v9.74Z"></path><path fill="#191468" d="M746.25,639.32l-32.48-19.21s-34.11-12.91-78.33,34.2c-54.22,57.77-31.61-40.1-31.61-40.1l74-59.46,78.78,10.82,6.93,41.12Z"></path><path fill="url(#x)" d="M636.47,615.39a4.33,4.33,0,0,0-.62-.36c-1.52-.7-3.52-.5-5.73.77-4.7,2.71-8.51,9.29-8.51,14.69,0,3,1.16,5,3,5.7l60.78,35.47,12-20.82Z"></path><path fill="#191468" d="M699.64,656.19c0,5.4-3.81,12-8.51,14.69s-8.52.55-8.52-4.85,3.81-12,8.52-14.69S699.64,650.8,699.64,656.19Z"></path><path fill="url(#y)" d="M701.36,636.88a8.76,8.76,0,0,0-1.36-.79c-3.28-1.52-7.64-1.09-12.42,1.67-10.21,5.9-18.49,20.18-18.49,31.89,0,6.47,2.52,10.79,6.49,12.39l4.52,2.88,26-45.2Z"></path><path fill="url(#g)" d="M711.07,651.35c0,11.71-8.28,26-18.49,31.89s-18.49,1.18-18.49-10.54,8.28-26,18.49-31.9S711.07,639.63,711.07,651.35Z"></path><path fill="#191468" d="M700.33 657.55c0 4.91-3.47 10.9-7.75 13.37s-7.75.49-7.75-4.42a17.07 17.07 0 017.75-13.37C696.86 650.66 700.33 652.63 700.33 657.55zM704.31 644.47a4.88 4.88 0 01-2.22 3.82c-1.22.71-2.21.14-2.21-1.26a4.9 4.9 0 012.21-3.83C703.32 642.5 704.31 643.06 704.31 644.47zM686.78 677a4.88 4.88 0 01-2.22 3.82c-1.22.71-2.22.14-2.22-1.26a4.91 4.91 0 012.22-3.83C685.79 675.05 686.78 675.61 686.78 677zM1168.29 366.66l-32.49-19.2s-34.11-12.92-78.33 34.19c-54.22 57.77-31.61-40.1-31.61-40.1l74-59.46 78.78 10.83L1176.72 331z"></path><path fill="url(#z)" d="M1070.05,352.6a3.85,3.85,0,0,0-.62-.36c-1.51-.7-3.52-.5-5.72.77-4.71,2.71-8.52,9.29-8.52,14.69,0,3,1.16,5,3,5.7L1119,408.87l12-20.82Z"></path><path fill="#191468" d="M1133.22,393.4c0,5.4-3.81,12-8.51,14.69s-8.52.55-8.52-4.85,3.82-12,8.52-14.69S1133.22,388,1133.22,393.4Z"></path><path fill="url(#A)" d="M1134.94,374.09a9.15,9.15,0,0,0-1.35-.79c-3.29-1.52-7.65-1.09-12.43,1.67-10.21,5.9-18.49,20.18-18.49,31.89,0,6.47,2.52,10.79,6.49,12.39l4.53,2.88,26-45.2Z"></path><path fill="url(#B)" d="M1144.65,388.56c0,11.72-8.28,26-18.49,31.89s-18.49,1.18-18.49-10.54,8.28-26,18.49-31.9S1144.65,376.84,1144.65,388.56Z"></path><path fill="#191468" d="M1133.91 394.76c0 4.91-3.47 10.9-7.75 13.37s-7.75.49-7.75-4.42 3.47-10.9 7.75-13.37S1133.91 389.84 1133.91 394.76zM1137.89 381.68a4.89 4.89 0 01-2.21 3.82c-1.23.71-2.22.14-2.22-1.26a4.88 4.88 0 012.22-3.83C1136.9 379.71 1137.89 380.27 1137.89 381.68zM1120.36 414.23a4.88 4.88 0 01-2.22 3.82c-1.22.71-2.21.14-2.21-1.26a4.9 4.9 0 012.21-3.83C1119.37 412.26 1120.36 412.82 1120.36 414.23z"></path><path fill="url(#C)" d="M357.35,594.31V527s-7.79-46.1,35.71-83.76,96.74-72.71,118.81-93.49S595,253,622.25,232.24s222-137,250-139.59,60.38,13,76,7.14a92.7,92.7,0,0,0,26-14.93s57.78,1.3,121.41,46.1,85.7,61.67,86.35,111V348.45l-13.63,18.18s1.29-51.7-51.94-13.51-59.09,84.93-63,99.86c-23.37,11.69-307.1,186.34-307.1,186.34s18.18-68.17-20.77-57.79-89,35.71-89,138.29c-20.13,6.5-74,23.38-143.48-13.63S357.35,611,357.35,594.31Z"></path><path fill="#191468" d="M511,662c8.61,2.52,17.18,4.66,25.8,6.41a201.38,201.38,0,0,0,26,3.61l3.26.19c1.08.06,2.17.06,3.25.1.55,0,1.09,0,1.63,0h1.63c1.08,0,2.17,0,3.25,0a119.84,119.84,0,0,0,13-1l3.23-.47c1.07-.18,2.13-.41,3.2-.6.54-.1,1.08-.18,1.61-.3l1.59-.38,1.6-.37c.53-.12,1.07-.24,1.59-.4a122.51,122.51,0,0,0,12.61-4.19,56.55,56.55,0,0,1-5.61,3.76l-1.47.85c-.49.28-1,.57-1.49.81l-3.07,1.48c-.51.26-1,.46-1.57.67l-1.58.63-1.6.63c-.53.2-1.08.36-1.62.54-1.08.35-2.17.71-3.27,1l-3.32.85c-1.1.3-2.23.47-3.35.7s-2.25.44-3.38.57-2.26.33-3.4.45l-3.41.29c-1.14.12-2.28.11-3.42.16l-1.71.06h-1.71c-1.14,0-2.28,0-3.42-.06l-3.41-.17a120.37,120.37,0,0,1-26.69-5A125.77,125.77,0,0,1,523,668.23c-2.07-.92-4.12-1.84-6.11-2.88A66.56,66.56,0,0,1,511,662Z" opacity=".5"></path><path fill="#191468" d="M1033.94 464.82l-2.06-.32c0-.34 5.39-34 13.13-62.54 7.33-27 30.1-47.42 33.11-50 1.7-16.68-2.87-52.15-3.24-55l-33.52-65.93 1.86-1 33.68 66.25 0 .18c.21 1.57 5.15 38.69 3.23 56.05l-.05.42-.32.26c-.26.21-25.12 21.11-32.76 49.24C1039.31 430.91 1034 464.49 1033.94 464.82zM967.48 93.12c4.9.09 9.79.46 14.67 1 2.44.31 4.88.57 7.3 1l3.64.58c1.21.22 2.41.46 3.62.69a209.92 209.92 0 0128.46 7.71 222 222 0 0127.2 11.45c1.1.55 2.22 1.06 3.31 1.64l3.25 1.76 3.24 1.76c1.08.59 2.17 1.16 3.22 1.81l6.35 3.78 1.58.94 1.55 1 3.1 2a390.52 390.52 0 0146.62 36 229 229 0 0120.46 21.22l2.35 2.84c.76 1 1.5 1.95 2.24 2.93 1.52 1.93 2.91 4 4.3 6 .7 1 1.32 2.07 2 3.11s1.27 2.1 1.87 3.17a44.88 44.88 0 013.13 6.66 44.46 44.46 0 00-3.51-6.43c-.66-1-1.29-2.07-2-3.06s-1.38-2-2.12-3l-2.23-2.9c-.71-1-1.53-1.9-2.3-2.85s-1.55-1.88-2.34-2.81l-2.45-2.72c-.82-.9-1.61-1.83-2.45-2.71l-2.54-2.64-2.54-2.63-2.63-2.54-2.63-2.54-1.32-1.27-1.35-1.23-5.44-4.9c-1.82-1.62-3.72-3.16-5.58-4.74s-3.7-3.18-5.63-4.67c-3.84-3-7.6-6.12-11.57-9l-5.87-4.38c-1-.74-2-1.45-3-2.14l-3-2.11-6-4.2-1.5-1.06-1.53-1-3.06-2-3-2-1.53-1-1.56-.94L1064 125c-1-.64-2.11-1.21-3.18-1.8l-3.2-1.76-3.2-1.75c-1.07-.57-2.17-1.1-3.25-1.66-2.19-1.08-4.34-2.22-6.54-3.26l-6.65-3c-2.22-1-4.49-1.87-6.73-2.82s-4.54-1.79-6.81-2.65a230.71 230.71 0 00-28-8.46c-1.19-.28-2.37-.57-3.57-.83l-3.59-.72c-2.38-.52-4.8-.87-7.21-1.31C977.21 94.16 972.36 93.52 967.48 93.12z"></path><path fill="#191468" d="M1181.9,242c0-2.2-.1-4.33-.22-6.41-2,6.09-5.78,12.1-12.16,17.68-34.78,30.44-42.21,31.6-42.21,31.6s27.68,7.06,54.59-9.28Z" opacity=".8"></path><path fill="#191468" d="M493.43 399s-52 65.73-54 99.3c0-9.69 13.68-58.65 52.37-104.38A8.77 8.77 0 00493.43 399zM519.53 542.62s88-4.29 138.4-49.83l.88 8.1S596.29 546 519.53 542.62z" opacity=".5"></path><path fill="#191468" d="M1144.29,241.91a6.77,6.77,0,0,0-4.5-5.55c-20.21-7.13-81.82-28.8-203.61,27.4C884.25,287.7,838.46,330.49,800.07,391c-22.48,35.44-42.16,76.87-56.92,119.8-1.14,3.36-.41,7,1.77,8.67a5.25,5.25,0,0,0,3.27,1.09,9.9,9.9,0,0,0,5.36-1.86q12.68-7.42,26-15.63c6.68-4,13.44-8.26,20.3-12.58,38.35-24.21,79.28-51.7,118.94-79.27l7.09-4.91c.22-.18.5-.36.77-.55s.73-.54,1.13-.81c.69-.46,1.37-1,2.05-1.41,2.18-1.55,4.4-3.09,6.59-4.64,1.86-1.27,3.72-2.58,5.54-3.9,9.54-6.68,19-13.36,28.21-19.95.82-.59,1.63-1.18,2.41-1.72,1.5-1.05,2.95-2.09,4.4-3.14.59-.45,1.18-.86,1.73-1.27s.82-.54,1.18-.82l3.41-2.45c34.43-24.71,66-47.93,91.77-67.1.63-.45,1.31-.91,2-1.41,38.43-28.62,63.37-47.79,64.42-48.61A6.82,6.82,0,0,0,1144.29,241.91Zm-69.73,54.42c-25.81,19.17-57.56,42.52-92.18,67.37-1.5,1.09-3,2.14-4.5,3.23-.59.45-1.18.86-1.77,1.27-1.45,1-3,2.09-4.45,3.13-1.64,1.23-3.32,2.41-5,3.59-9.22,6.59-18.62,13.27-28.16,19.95l-5.55,3.9c-1.59,1.14-3.18,2.23-4.77,3.37-.54.36-1,.72-1.54,1a8.39,8.39,0,0,1-.82.59c-.64.46-1.27.91-1.91,1.32-2.18,1.54-4.36,3-6.54,4.59-39.8,27.62-80.82,55.19-119.25,79.41-7,4.36-13.81,8.63-20.53,12.72-8.55,5.27-17,10.31-25.13,15.08-2.63,1.68-4.86,2-6.27.91s-1.91-3.86-1-6.36c18.9-55.2,74.5-187.67,185.71-242.82.59-.32,1.23-.59,1.87-.91,1.4-.68,2.86-1.36,4.31-2,41.8-19.31,76.41-29.35,104.67-33.94.73-.14,1.45-.27,2.14-.36a239.2,239.2,0,0,1,36.75-3c30.16,0,49,6.63,58.51,9.95a4.8,4.8,0,0,1,1.09,8.49c-.73.59-25.53,19.67-63.92,48.25C1075.69,295.47,1075.15,295.88,1074.56,296.33Z"></path><path fill="#191468" d="M1117.92 253.25S914.56 410.06 777.43 490.41c-6.52 4.17-9.39-1.18-7.78-5.87C783.56 444 831.22 329 937.43 280c104.82-48.36 159.94-42.56 179.28-35.75A5.12 5.12 0 011117.92 253.25zM626.16 242.75L528.9 344.36a33.73 33.73 0 001.47 48.09c45.15 41.71 146 89.28 161.47 92.14 22.58 4.17 38.86-4.69 47.24-17.81l69.86-109.37a7.38 7.38 0 00-2.87-10.56C777.44 332.3 672.3 277.7 636.66 242.58A7.38 7.38 0 00626.16 242.75z"></path><path fill="#0f0f59" d="M806.07,346.85c-28.62-14.54-133.79-69.14-169.41-104.26a7.34,7.34,0,0,0-10.49.13l-45.93,48-13.45,14.08-14.94,15.58-14.18,14.81-8.76,9.18a31.39,31.39,0,0,0-5.14,7,33.64,33.64,0,0,0,6.59,41.07,234,234,0,0,0,21.49,17.44c4.77,3.5,9.76,7,14.94,10.41,4.36,2.91,8.86,5.81,13.45,8.63,46.57,29,100.58,53.61,111.58,55.65a58.58,58.58,0,0,0,10.94,1c17,0,29.35-7.95,36.35-18.85l69.82-109.39A7.34,7.34,0,0,0,806.07,346.85Zm-.59,8.36L735.61,464.56a35.71,35.71,0,0,1-12.9,12.13,40.72,40.72,0,0,1-20,4.86,57.67,57.67,0,0,1-10.17-1c-10.45-1.91-65.6-27-112.35-56.43-4.59-2.86-9.09-5.81-13.45-8.76-5.22-3.5-10.22-7.05-14.94-10.59-6.86-5.13-13.18-10.31-18.67-15.35a29.58,29.58,0,0,1-1.32-42.21l8.27-8.63,11.72-12.27,14.94-15.58,13.45-14.08,48.88-51.06a3.3,3.3,0,0,1,2.36-1,3.37,3.37,0,0,1,2.32.91c35.8,35.29,139.47,89.31,170.41,105a3.18,3.18,0,0,1,1.68,2A3.42,3.42,0,0,1,805.48,355.21Z"></path><path fill="#191468" d="M891.6,99.1l59.4,7.47c.46.06.91.11,1.37.14,9.07.73,113.23,10.71,169.3,89.78a9.2,9.2,0,0,1-7.83,14.49c-18.78-.62-38.7-2-49.45-2.8a20.59,20.59,0,0,1-13.14-6.07c-15.51-15.69-66.77-62.27-160.68-99A2.11,2.11,0,0,1,891.6,99.1Z"></path><path d="M511.58,619.77s2.82-9,13.5-15.74,88.66-11.84,88.66-11.84a11.63,11.63,0,0,1,10.76,18.49l-8.19,11c-10.52,14.09-23.79,19.45-46.47,20.15S517,630.28,517,630.28A7.43,7.43,0,0,1,511.58,619.77Z" style="mix-blend-mode:overlay" fill="#fff" opacity=".5"></path><path fill="#191468" d="M633.89,593a7.49,7.49,0,0,0-.91-1.5,1.33,1.33,0,0,0-.36-.5,13.79,13.79,0,0,0-11.36-5.86,11.67,11.67,0,0,0-1.77.09c-.68,0-5.45.36-12.45.91-7.22.55-16.85,1.36-26.8,2.36a10,10,0,0,0-1.09.09c-4.41.46-8.54.91-12.36,1.37-5.58.63-10.58,1.31-14.94,2l-2.82.41c-13.67,2.23-17.58,4-19.35,5.09a37.39,37.39,0,0,0-13.31,14.22,26.32,26.32,0,0,0-1.23,2.77,10.07,10.07,0,0,0,.23,8.77,10,10,0,0,0,6.9,5.22,207.52,207.52,0,0,0,29.58,8.95,116.92,116.92,0,0,0,14.94,2.32c2.41.23,4.82.36,7.14.36.68,0,1.31,0,2,0,1.5,0,3-.09,4.32-.18A92.91,92.91,0,0,0,594.37,638c2-.45,3.91-1,5.72-1.54a44.49,44.49,0,0,0,4.55-1.68c7.85-3.36,14.12-8.41,19.76-15.9l8.18-11A14,14,0,0,0,633.89,593Zm-1.63,9.9a11.46,11.46,0,0,1-1.77,3.41l-8.18,10.95c-.87,1.13-1.73,2.22-2.68,3.27a27.51,27.51,0,0,1-2.46,2.63,34.25,34.25,0,0,1-4.08,3.64c-.73.59-1.41,1.09-2.14,1.59a4.91,4.91,0,0,1-.68.41,12,12,0,0,1-1.32.86s-.09,0-.13.09a13.66,13.66,0,0,1-1.41.77,31.48,31.48,0,0,1-3.55,1.73c-1.13.5-2.27,1-3.45,1.36-.41.14-.64.23-.86.32-1,.32-2.09.64-3.23.91-.09,0-.22,0-.32.09a89.69,89.69,0,0,1-15.76,2.32c-1.41,0-2.91.13-4.41.18-.69,0-1.41,0-2.11,0-2.26,0-4.59-.13-6.93-.35-1.86-.14-3.72-.37-5.58-.64a3.26,3.26,0,0,0-.69-.09c-1.18-.23-2.36-.41-3.59-.59a4.71,4.71,0,0,0-.81-.18c-1.46-.28-2.86-.55-4.27-.87l-1.78-.41c-3.68-.86-7.17-1.81-10.4-2.77-1.54-.4-3-.86-4.36-1.27-.73-.27-1.41-.5-2.09-.68s-1-.36-1.5-.5c-1-.36-1.91-.64-2.72-1s-1.59-.59-2.28-.82-1.27-.46-1.77-.64l-2-.77a7.43,7.43,0,0,1-5.45-10.49,30.68,30.68,0,0,1,8.31-11.82,48.59,48.59,0,0,1,5.23-4c2.9-1.86,10.81-3.54,20.76-5.09,4.63-.68,9.72-1.36,14.94-2,4.46-.5,9-1,13.45-1.46,7.77-.77,15.36-1.41,21.71-2l1.82-.14c4.36-.36,8.09-.63,10.82-.82l1.68-.13,3.45-.23a11.19,11.19,0,0,1,9.81,3.5,1.81,1.81,0,0,1,.27.32,3,3,0,0,1,.82,1A11.41,11.41,0,0,1,632.26,602.93Zm-56.43,34.53c-.69,0-1.41,0-2.11,0h2.11Zm-9-.32c2.36.21,4.66.3,6.93.31-2.26,0-4.59-.13-6.93-.35Z"></path><path fill="#fff" d="M517.57,615.43s2.82-9,13.5-15.75,88.66-11.84,88.66-11.84a11.63,11.63,0,0,1,10.76,18.49l-8.19,11c-10.52,14.1-23.79,19.45-46.47,20.15S523,625.94,523,625.94A7.44,7.44,0,0,1,517.57,615.43Z"></path><path fill="#191468" d="M359.66 496q-.2.74-.36 1.47Q359.47 496.73 359.66 496zM360.07 494.4c-.13.49-.26 1-.38 1.47C359.81 495.38 359.94 494.89 360.07 494.4zM360.52 492.78c-.14.51-.28 1-.42 1.5C360.24 493.78 360.38 493.29 360.52 492.78zM359.28 497.55q-.18.74-.33 1.47Q359.1 498.29 359.28 497.55z"></path><path d="M385.88,450.06l-.9.87c-20.63,21.57-26.46,44.62-27.81,59.62,8.6,17,24.43,33,24.43,33a7.44,7.44,0,0,0,11.82.75,250.74,250.74,0,0,0-1.31-30.88C390.71,498.9,387.31,464.5,385.88,450.06Z" style="mix-blend-mode:overlay" fill="#fff" opacity=".5"></path><path fill="#191468" d="M391.93 446.34l-.19-1.92a105.84 105.84 0 00-25.3 33 105.22 105.22 0 0122.91-30.78c1.42 14.44 4.82 48.84 6.23 63.31a251.9 251.9 0 011.3 30.89 7.44 7.44 0 01-11.82-.75s-19.08-19.23-26.73-38c.09-.49.19-1 .29-1.48-.44 2.16-.77 4.23-1 6.2 8.13 17 23.56 33 25.46 34.92a10 10 0 0015.79.79l.6-.68 0-.91a249.21 249.21 0 00-1.31-31.25C396.75 495.11 393.33 460.53 391.93 446.34zM361 491.15c-.16.51-.31 1-.45 1.52C360.7 492.16 360.85 491.66 361 491.15zM358.93 499.08c-.11.5-.21 1-.31 1.48C358.72 500.07 358.82 499.58 358.93 499.08zM362.71 486.12l-.57 1.59zM365.59 479.17c-.26.57-.52 1.14-.76 1.71C365.07 480.31 365.33 479.74 365.59 479.17zM364.8 480.93c-.24.56-.48 1.11-.71 1.67C364.32 482 364.56 481.49 364.8 480.93zM366.43 477.4c-.28.57-.55 1.15-.82 1.73C365.88 478.55 366.15 478 366.43 477.4zM363.37 484.4c-.22.54-.42 1.08-.62 1.62C363 485.48 363.15 484.94 363.37 484.4zM364.06 482.67q-.35.82-.66 1.65Q363.72 483.5 364.06 482.67zM362.1 487.81l-.52 1.56zM361.54 489.49c-.17.52-.33 1-.49 1.53C361.21 490.52 361.37 490 361.54 489.49z"></path><path fill="#fff" d="M389.35,446.6c-20.27,19.06-28.14,39.82-31,55.47,7.65,18.75,26.73,38,26.73,38a7.45,7.45,0,0,0,11.82.75,251.9,251.9,0,0,0-1.3-30.89C394.17,495.44,390.77,461,389.35,446.6Z"></path><polygon points="482.99 652.59 401.18 605.35 401.18 584.14 482.99 631.38 482.99 652.59" style="mix-blend-mode:overlay" fill="#fff" opacity=".5"></polygon><path fill="#0f0f59" d="M1116.71,244.22c-.72-.27-1.49-.5-2.31-.77-1.05-.32-2.18-.59-3.41-.91s-2.23-.5-3.45-.77-2.5-.45-3.86-.68a131,131,0,0,0-19.58-1.36,202.78,202.78,0,0,0-27.26,2c-.73.09-1.46.22-2.18.31-1.64.23-3.32.5-5,.78-.73.13-1.46.22-2.18.36l-.64.13c-1.14.19-2.23.37-3.36.6-7,1.31-14.54,3-22.63,5.13-2.77.73-5.58,1.54-8.49,2.36-.73.23-1.45.46-2.23.64-4.54,1.36-9.22,2.81-14.08,4.45a562.75,562.75,0,0,0-54,21.35l-4,1.77-.78.37-1.13.54q-3,1.37-5.86,2.86c-96.63,48.34-142.83,151.46-158.69,195.26-.77,2.13-1.45,4.09-2.08,5.9-1.19,3.5.09,7.36,3.54,7.36a8.28,8.28,0,0,0,4.27-1.5c3.95-2.31,7.95-4.67,12-7.17,39.57-23.72,83.72-53,126.52-82.68a2.14,2.14,0,0,0,.5-.32l1.77-1.23c2.18-1.5,4.36-3,6.54-4.54,14.4-10,28.62-20,42.43-29.85a10.33,10.33,0,0,1,1-.68c1.5-1.09,3-2.18,4.49-3.23.59-.45,1.18-.86,1.73-1.27,1.5-1,3-2.09,4.45-3.18,33.44-23.94,63.79-46.34,87.54-64.05,1.46-1.14,3-2.23,4.37-3.27.59-.46,1.18-.87,1.72-1.28,1.55-1.18,3-2.31,4.5-3.4,25.35-19,40.89-31,40.89-31A5.12,5.12,0,0,0,1116.71,244.22Zm-1.13,5.68c-.46.32-15.72,12.09-40.34,30.58-1.5,1.13-3,2.27-4.64,3.45-.54.45-1.13.86-1.68,1.32-1.41,1-2.86,2.09-4.31,3.18-19,14.17-42.3,31.39-67.92,50q-9.41,6.81-19.53,14.08c-1.46,1-3,2.14-4.46,3.18-.59.41-1.13.82-1.72,1.27-1.5,1.05-3,2.14-4.55,3.23-3.13,2.22-6.31,4.5-9.54,6.77-12.49,8.86-25.57,18-39,27.35-.55.36-1.14.77-1.73,1.18a.7.7,0,0,1-.18.13c-43.16,29.9-89.5,60.7-130.61,85.32-3.41,2-6.72,4-10,5.95a5.41,5.41,0,0,1-2,.91,3.12,3.12,0,0,1,.13-1.91c.91-2.63,2-5.68,3.18-9a435.68,435.68,0,0,1,45.61-89.14C853.18,342,890.07,308.1,932.14,287.06c1.9-.95,3.86-1.91,5.81-2.81.41-.19.77-.37,1.18-.55.23-.09.5-.23.73-.32,1.36-.63,2.72-1.27,4-1.81,42.39-19.22,75.87-29.08,101.4-33.85,1.45-.23,2.82-.5,4.18-.73.73-.09,1.45-.22,2.13-.36,2.41-.36,4.77-.73,7.05-1a194.1,194.1,0,0,1,25.44-1.82c16.62,0,26.71,2.68,31.25,4.28a1,1,0,0,1,.64.81A1,1,0,0,1,1115.58,249.9ZM971,356.93c-1.5,1.05-3,2.14-4.55,3.23-3.13,2.22-6.31,4.5-9.54,6.77-12.49,8.86-25.57,18-39,27.35-.55.36-1.14.77-1.73,1.18a6.67,6.67,0,0,0,2.09,3.5q3.27-2.19,6.54-4.5c14.4-10,28.62-20,42.43-29.85a10.33,10.33,0,0,1,1-.68c1.5-1.09,3-2.18,4.49-3.23Z"></path><polygon fill="url(#D)" points="1068.48 296.55 1040.19 236.97 1051.95 231.46 1080.23 291.03 1068.48 296.55"></polygon><path fill="#0f0f59" d="M1122.44,197.75a10.76,10.76,0,0,0-.77-1.27c-56.06-79-160.23-89-169.32-89.77l-1.36-.14-59.38-7.45a1,1,0,0,0-.32,0c-.07,0-.12.06-.19.06a2,2,0,0,0-1,.33,1.9,1.9,0,0,0-.21.19,2.15,2.15,0,0,0-.56.81,1.29,1.29,0,0,0,0,.21,2.07,2.07,0,0,0-.05,1c0,.06.05.1.06.16a1.87,1.87,0,0,0,.65.94,1.73,1.73,0,0,0,.59.37c93.9,36.66,145.14,83.27,160.68,98.94a20.89,20.89,0,0,0,13.13,6.09c10.77.77,30.66,2.18,49.47,2.77h.32a9.32,9.32,0,0,0,4.54-1.18,9.26,9.26,0,0,0,4.27-5.41A9.15,9.15,0,0,0,1122.44,197.75Zm-3.77,6.36a5,5,0,0,1-4.5,2.77H1114c-18.85-.64-39-2-49.29-2.77a16.76,16.76,0,0,1-10.54-4.86c-16.77-17-63.69-58.83-147.87-94.18l44.2,5.59,1.54.14c5.18.41,32.53,3.09,66,15.26a240.84,240.84,0,0,1,52.51,26.53,185.83,185.83,0,0,1,47.79,46.29A4.84,4.84,0,0,1,1118.67,204.11Z"></path><path d="M546.53,687.25c-16.64,1.79-56-3.9-125.32-55.56C383,603.17,365.41,577,357.35,559.18V585.6c15.75,21.63,38.43,47.08,59.13,62.17,54.94,40,106,52.78,128.39,57.45S564.68,685.31,546.53,687.25Z" style="mix-blend-mode:overlay" fill="#fff" opacity=".5"></path><path fill="#191468" d="M551.57,687.25c-16.64,1.79-56.05-3.9-125.32-55.56-49.95-37.25-64.61-70.57-68.9-86.26v33c15.67,22.9,41.14,52.52,64.17,69.3,54.94,40,106,52.78,128.4,57.45S569.73,685.31,551.57,687.25Z"></path><polygon fill="#0f0f59" points="937.99 421.72 937.99 428.21 953.14 419.47 953.14 425.02 965.48 417.9 965.48 412.34 965.48 411.4 965.48 405.85 937.99 421.72"></polygon><path fill="url(#E)" d="M596,635A44.7,44.7,0,0,0,622.3,617.3l8.19-11a11.63,11.63,0,0,0-10.76-18.49s-6.48.42-16,1.19C608.38,599.81,610.3,616.08,596,635Z"></path><path fill="url(#F)" d="M390.69,460.18c-.53-5.33-1-10.05-1.34-13.58-17.81,16.74-26.05,34.8-29.73,49.55C368.16,471.71,382.49,463.15,390.69,460.18Z"></path><path d="M413.16,528.26c-4.1-2.42-6.65-.59-5.67,4.07l8.83,41.95a22.48,22.48,0,0,0,9.24,12.86l45.05,26.56a11.4,11.4,0,0,0,13.4-1.9l19.36-20.5a6.62,6.62,0,0,0-1.52-10.7Z" style="mix-blend-mode:overlay" fill="#fff" opacity=".5"></path><path fill="#191468" d="M415.33,527.39c-4.11-2.42-6.66-.59-5.68,4.07l8.83,41.95a22.5,22.5,0,0,0,9.24,12.87l45,26.55a11.39,11.39,0,0,0,13.4-1.89l19.36-20.51A6.62,6.62,0,0,0,504,579.74Z"></path><path fill="#0e0e49" d="M418.27,572.39l.21,1a14.27,14.27,0,0,0,.54,1.86l66.2,36.53a9.7,9.7,0,0,0,.95-.86l.67-.72Z"></path><polygon fill="#0e0e49" points="491.9 604.87 493.43 603.25 415.74 560.38 416.33 563.18 491.9 604.87"></polygon><polygon fill="#0e0e49" points="413.8 551.17 498.48 597.89 500.02 596.27 413.21 548.37 413.8 551.17"></polygon><path fill="#0e0e49" d="M410.69,536.37l.58,2.79,93.8,51.76.46-.49a7.45,7.45,0,0,0,.94-1.21Z"></path><rect width="12.99" height="108.05" x="950.54" y="270.88" fill="url(#G)" transform="rotate(-25.13 956.94 324.903)"></rect><path fill="#191468" d="M1140.82,247.64S909.21,426.24,753,517.76c-7.42,4.76-10.69-1.34-8.86-6.68C760,464.91,815.66,320.5,936.62,264.7c119.39-55.08,180.8-35.1,202.83-27.35A5.84,5.84,0,0,1,1140.82,247.64Z" opacity=".4"></path><polygon fill="url(#H)" points="404.25 603.95 482.99 649.41 482.99 631.38 404.25 585.91 404.25 603.95"></polygon><g opacity=".4"><path fill="#191468" d="M582.1 658.18c-40.83 9.72-167.2-60.65-224.75-120.88v57c0 16.67 66.23 74.87 135.7 111.88s123.35 20.13 143.48 13.63c0-49.51 11.65-81 28.08-101.54C629 638.75 598.62 654.24 582.1 658.18zM1168.27 366.63l13.63-18.18v-67C1131.13 316.73 933 453.92 890.57 478.26c-25.89 14.86-95.94 61-164.1 103 37.65-9 19.78 58 19.78 58S1030 464.67 1053.35 453c3.89-14.93 9.74-61.68 63-99.86S1168.27 366.63 1168.27 366.63z"></path></g><path fill="url(#I)" d="M363.76,562.07a99.94,99.94,0,0,1-5.5-13.58l-.91-.54v30.52q2.14,3.13,4.52,6.41A160.79,160.79,0,0,1,363.76,562.07Z"></path><path fill="url(#J)" d="M551.57,687.25c-6.72.72-17.15.22-31.76-4-1,4.25-1.42,9.69.77,14.46,12.15,3.74,22.2,6.05,29.34,7.54C572.34,709.89,569.73,685.31,551.57,687.25Z"></path><path fill="#191468" d="M803,568.82l4.37-3.14,4.39-3.11,8.79-6.21q8.82-6.15,17.68-12.26C844.14,540,850.08,536,856,532l17.83-12L891.73,508l4.49-3,1.13-.74.25-.17.29-.21.56-.4c.75-.52,1.5-1,2.27-1.51a59.71,59.71,0,0,1,9.65-5.11,36,36,0,0,1,5.23-1.72,19.52,19.52,0,0,1,5.56-.59,10.62,10.62,0,0,1,5.43,1.7,10.21,10.21,0,0,1,3.56,4.4A18.64,18.64,0,0,1,931.5,506a38,38,0,0,1,.19,5.43,66.49,66.49,0,0,1-.56,10.74,38.36,38.36,0,0,0,.15-5.36l-.21-5.38a38.79,38.79,0,0,0-.44-5.3,18.23,18.23,0,0,0-1.52-5,8.47,8.47,0,0,0-8-5.05,18.53,18.53,0,0,0-5.09.69,34.56,34.56,0,0,0-4.93,1.77,63.32,63.32,0,0,0-9.24,5.14c-.74.49-1.46,1-2.18,1.5l-.53.39-.26.19-.29.21-1.11.76-4.45,3-17.84,12-17.91,11.93c-6,3.94-12,7.92-18,11.82s-12,7.83-18.07,11.71l-9.08,5.77L807.59,566Z"></path><path fill="url(#i)" d="M767.3,626.38c6.43-29.72,6.84-74.89-60-50.68-81.6,29.55-83.36,120.71-82,147.53,4.48-1.22,8.26-2.43,11.28-3.41,0-102.58,50-127.9,89-138.29s20.77,57.79,20.77,57.79Z"></path><path fill="url(#K)" d="M1041.83,459.43c5.54-3.22,9.5-5.44,11.52-6.45,3.89-14.93,9.74-61.68,63-99.86s51.94,13.51,51.94,13.51l12.28-16.37c-4.94-26.72-23.49-36.3-73.31-7.61C1060.8,369.39,1045.81,435.58,1041.83,459.43Z"></path><path fill="#383097" d="M765.93,494.08s48.05,34,47.83,17.22S782.38,478.68,777.19,477,767,484.74,767,484.74l-3.46-1.56v9.74Z"></path><path fill="#191468" d="M986.66,493.05l-2.09-.11c0-.55,2.95-56,2.95-80.41,0-24.13-8.48-38-8.56-38.09s-48.53-106.82-48.53-106.82l1.9-.86,48.43,106.63c.72,1.17,8.85,14.94,8.85,39.14C989.61,437,986.68,492.5,986.66,493.05Z"></path><path fill="url(#L)" d="M1116.68,980.53v5.78c0,3.6-2.34,7.19-7,9.91L918.29,1106.15c-9.38,5.42-24.7,5.38-34.06-.07L823,1070.35c-4.46-2.6-6.78-6-7-9.39,0,0,0-6.38,0-6.38Z"></path><path fill="#fff" d="M822.25,1065.72l61.27,35.73c4.76,2.77,11.09,4.3,17.82,4.3a36,36,0,0,0,17.66-4.22l191.34-109.94a16.78,16.78,0,0,0,6.34-6v-5.09c0,3.57-2.37,7.14-7,9.83L918.29,1100.3c-4.67,2.7-10.8,4-16.95,4s-12.41-1.37-17.11-4.11L823,1064.49c-4.68-2.72-7-6.31-7-9.89v5.16A16.9,16.9,0,0,0,822.25,1065.72Z"></path><path fill="url(#M)" d="M884.23,1100.23c9.36,5.45,24.68,5.48,34.06.07l191.34-109.94c9.38-5.41,9.4-14.3,0-19.76l-61.27-35.73c-9.36-5.46-24.68-5.49-34.06-.08L823,1044.73c-9.38,5.42-9.4,14.31,0,19.76Z"></path><path fill="#636c9e" d="M1023.26,958.13v61.79c0,2.35-1.53,4.71-4.62,6.49l-35.57,20.5c-6.15,3.55-16.19,3.53-22.32-.05l-40.15-23.41c-2.92-1.71-4.45-3.92-4.58-6.16,0,0,0-62.18,0-62.18Z"></path><path fill="url(#N)" d="M1023.26,954.6v61.78c0,2.36-1.53,4.71-4.62,6.49l-35.57,20.51c-6.15,3.55-16.19,3.52-22.32-.05l-40.15-23.42c-2.92-1.7-4.45-3.91-4.58-6.15,0,0,0-62.18,0-62.18Z"></path><path fill="#f9f9f9" d="M919.53,959.91l40.15,23.42a26.77,26.77,0,0,0,24.45,0l35.57-20.5a13.41,13.41,0,0,0,3.56-2.89V954.6c0,2.33-1.55,4.67-4.62,6.44l-35.57,20.5a24.62,24.62,0,0,1-22.32,0L920.6,958.08c-3.07-1.79-4.6-4.14-4.59-6.49V957A13.5,13.5,0,0,0,919.53,959.91Z"></path><path fill="#eeeef6" d="M960.75,981.49c6.13,3.58,16.17,3.6,22.32,0l35.57-20.5c6.15-3.55,6.16-9.38,0-12.95l-40.15-23.42c-6.13-3.57-16.17-3.59-22.32,0l-35.58,20.51c-6.14,3.54-6.15,9.37,0,13Z"></path><path fill="url(#O)" d="M1012.61,401V951.7c0,1.89-1.23,3.78-3.7,5.21L980.4,973.34c-4.93,2.84-13,2.83-17.89,0l-32.18-18.77c-2.34-1.36-3.56-3.14-3.66-4.93,0,0,0-551,0-551Z"></path><path fill="#f9f9f9" d="M962.51,422.57c4.91,2.87,13,2.88,17.89,0l28.51-16.43c4.93-2.85,4.94-7.52,0-10.38L976.76,377c-4.92-2.86-13-2.88-17.89,0l-28.51,16.43c-4.93,2.85-4.94,7.52,0,10.38Z"></path><path fill="url(#P)" d="M1023.26,397.24v11.67c0,2.36-1.53,4.71-4.62,6.49l-35.57,20.51c-6.15,3.55-16.19,3.52-22.32-.05L920.6,412.44c-2.92-1.7-4.45-3.91-4.58-6.15,0,0,0-12.07,0-12.07Z"></path><path fill="#fff" d="M919.53,402.55,959.68,426a26.77,26.77,0,0,0,24.45,0l35.57-20.5a13.41,13.41,0,0,0,3.56-2.89v-5.39c0,2.34-1.55,4.67-4.62,6.44l-35.57,20.5a24.62,24.62,0,0,1-22.32-.05L920.6,400.72c-3.07-1.79-4.6-4.14-4.59-6.49v5.45A13.5,13.5,0,0,0,919.53,402.55Z"></path><path fill="#f4f4fc" d="M960.75,424.13c6.13,3.58,16.17,3.6,22.32.05l35.57-20.5c6.15-3.55,6.16-9.38,0-12.95l-40.15-23.42c-6.13-3.57-16.17-3.59-22.32-.05l-35.58,20.51c-6.14,3.55-6.15,9.37,0,13Z"></path><polygon fill="url(#Q)" points="1014.66 795.51 960.22 826.94 960.22 750.68 1014.66 719.24 1014.66 795.51"></polygon><polygon fill="url(#R)" points="1040.91 810.52 986.47 841.95 986.47 765.69 1040.91 734.26 1040.91 810.52"></polygon><polygon fill="url(#S)" points="960.22 826.85 986.47 842 986.47 765.74 960.22 750.59 960.22 826.85"></polygon><polygon fill="#feae6e" points="1014.66 719.24 1040.91 734.26 986.47 765.74 960.22 750.59 1014.66 719.24"></polygon><path fill="url(#T)" d="M1021.85,793.35a4.28,4.28,0,0,0-.75-.43c-1.81-.85-4.23-.61-6.87.92C1008.57,797.1,1004,805,1004,811.49c0,3.58,1.4,6,3.6,6.86l5.86,3.36,14.37-25Z"></path><path fill="url(#U)" d="M1030.59,803.13c0,6.48-4.58,14.39-10.23,17.65s-10.24.65-10.24-5.84,4.58-14.38,10.24-17.65S1030.59,796.64,1030.59,803.13Z"></path><path fill="url(#V)" d="M1021.85,761.51a5.08,5.08,0,0,0-.75-.44c-1.81-.84-4.23-.6-6.87.93-5.66,3.26-10.24,11.17-10.24,17.65,0,3.58,1.4,6,3.6,6.86l5.86,3.36,14.37-25Z"></path><path fill="url(#W)" d="M1030.59,771.29c0,6.48-4.58,14.38-10.23,17.65s-10.24.65-10.24-5.84,4.58-14.39,10.24-17.65S1030.59,764.8,1030.59,771.29Z"></path></g></svg>