<svg xmlns="http://www.w3.org/2000/svg" xmlns:xlink="http://www.w3.org/1999/xlink" viewBox="0 0 1600 1200" id="mechanic-giving-car-key-to-customer"><defs><linearGradient id="a" x1="-2138.92" x2="-1867.79" y1="981.72" y2="1058.99" gradientTransform="translate(2688.86)" gradientUnits="userSpaceOnUse"><stop offset="0" stop-color="#636c9e"></stop><stop offset=".1" stop-color="#858cb3"></stop><stop offset=".22" stop-color="#aaafca"></stop><stop offset=".36" stop-color="#c9ccdd"></stop><stop offset=".5" stop-color="#e1e2ec"></stop><stop offset=".64" stop-color="#f2f2f7"></stop><stop offset=".8" stop-color="#fcfcfd"></stop><stop offset="1" stop-color="#fff"></stop></linearGradient><linearGradient id="b" x1="-2203.6" x2="-1965.74" y1="992.01" y2="992.01" gradientTransform="translate(2688.86)" gradientUnits="userSpaceOnUse"><stop offset="0" stop-color="#cfd5f7"></stop><stop offset="1" stop-color="#bcc2e6"></stop></linearGradient><linearGradient id="k" x1="-2359.28" x2="-2195.17" y1="949.5" y2="996.27" xlink:href="#a"></linearGradient><linearGradient id="l" x1="-2398.43" x2="-2254.46" y1="955.73" y2="955.73" xlink:href="#b"></linearGradient><linearGradient id="g" x1="2683.95" x2="2438.38" y1="649.57" y2="423.2" gradientTransform="matrix(-1 0 0 1 3271.26 0)" gradientUnits="userSpaceOnUse"><stop offset="0" stop-color="#fff"></stop><stop offset=".2" stop-color="#fcfcfd"></stop><stop offset=".36" stop-color="#f2f2f7"></stop><stop offset=".5" stop-color="#e1e2ec"></stop><stop offset=".64" stop-color="#c9ccdd"></stop><stop offset=".78" stop-color="#aaafca"></stop><stop offset=".9" stop-color="#858cb3"></stop><stop offset="1" stop-color="#636c9e"></stop></linearGradient><linearGradient id="d" x1="3038.21" x2="3081.57" y1="327.2" y2="327.2" gradientTransform="matrix(-1 0 0 1 4261.57 0)" gradientUnits="userSpaceOnUse"><stop offset="0" stop-color="#191468"></stop><stop offset="1" stop-color="#383097"></stop></linearGradient><linearGradient id="c" x1="3468.75" x2="3621.05" y1="5192.88" y2="5192.88" gradientTransform="matrix(-1 -.58 0 1 4261.57 -2734.61)" gradientUnits="userSpaceOnUse"><stop offset="0" stop-color="#d0d4f9"></stop><stop offset="1" stop-color="#636c9e"></stop></linearGradient><linearGradient id="m" x1="3555.62" x2="3730.15" y1="392.94" y2="409.78" gradientTransform="matrix(-1 0 0 1 4261.57 0)" xlink:href="#c"></linearGradient><linearGradient id="n" x1="3554.67" x2="3729.2" y1="402.82" y2="419.66" gradientTransform="matrix(-1 0 0 1 4261.57 0)" xlink:href="#c"></linearGradient><linearGradient id="o" x1="3553.32" x2="3727.85" y1="416.8" y2="433.64" gradientTransform="matrix(-1 0 0 1 4261.57 0)" xlink:href="#c"></linearGradient><linearGradient id="p" x1="3554.45" x2="3730.95" y1="401.66" y2="418.69" gradientTransform="matrix(-1 0 0 1 4261.57 0)" xlink:href="#c"></linearGradient><linearGradient id="q" x1="3557.29" x2="3731.81" y1="375.71" y2="392.55" gradientTransform="matrix(-1 0 0 1 4261.57 0)" xlink:href="#c"></linearGradient><linearGradient id="r" x1="3557.32" x2="3731.85" y1="375.4" y2="392.24" gradientTransform="matrix(-1 0 0 1 4261.57 0)" xlink:href="#c"></linearGradient><linearGradient id="s" x1="3591.95" x2="3585.78" y1="5195.71" y2="5216.39" xlink:href="#c"></linearGradient><linearGradient id="t" x1="3590.79" x2="3586.94" y1="391.66" y2="406.8" gradientTransform="matrix(-1 0 0 1 4261.57 0)" xlink:href="#c"></linearGradient><linearGradient id="u" x1="664.19" x2="800.56" y1="315.41" y2="342.41" xlink:href="#d"></linearGradient><linearGradient id="v" x1="3884" x2="3080.13" y1="161.56" y2="378.22" xlink:href="#d"></linearGradient><linearGradient id="e" x1="3152.85" x2="3131.67" y1="550.33" y2="557.31" gradientTransform="matrix(-1 0 0 1 4261.57 0)" gradientUnits="userSpaceOnUse"><stop offset="0" stop-color="#ff5a72"></stop><stop offset="1" stop-color="#feae6e"></stop></linearGradient><linearGradient id="w" x1="2976.08" x2="2911.04" y1="423.29" y2="444.27" xlink:href="#e"></linearGradient><linearGradient id="x" x1="3891.17" x2="3087.32" y1="188.21" y2="404.86" gradientTransform="matrix(-.42 -.91 -.91 .42 2568.69 3287.32)" xlink:href="#d"></linearGradient><linearGradient id="y" x1="2955.51" x2="3023.51" y1="564.53" y2="564.53" gradientTransform="matrix(-1 0 0 1 4261.57 0)" xlink:href="#b"></linearGradient><linearGradient id="z" x1="2911.36" x2="2924.18" y1="516.33" y2="525.27" xlink:href="#e"></linearGradient><linearGradient id="A" x1="3054.6" x2="3095.15" y1="630.89" y2="630.89" xlink:href="#e"></linearGradient><linearGradient id="f" x1="3146.15" x2="3271.37" y1="589.02" y2="589.02" gradientTransform="matrix(-1 0 0 1 4261.57 0)" gradientUnits="userSpaceOnUse"><stop offset="0" stop-color="#191468"></stop><stop offset="0" stop-color="#191468"></stop><stop offset=".2" stop-color="#2a2382"></stop><stop offset=".37" stop-color="#342d92"></stop><stop offset=".51" stop-color="#383097"></stop><stop offset=".65" stop-color="#352d93"></stop><stop offset=".8" stop-color="#2c2685"></stop><stop offset=".96" stop-color="#1e1970"></stop><stop offset="1" stop-color="#191468"></stop></linearGradient><linearGradient id="B" x1="3506.05" x2="3625.83" y1="369.94" y2="369.94" xlink:href="#f"></linearGradient><linearGradient id="C" x1="3554.66" x2="3729.19" y1="402.9" y2="419.74" gradientTransform="matrix(-1 0 0 1 4261.57 0)" xlink:href="#c"></linearGradient><linearGradient id="D" x1="3552.89" x2="3729.46" y1="417.01" y2="434.05" gradientTransform="matrix(-1 0 0 1 4261.57 0)" xlink:href="#c"></linearGradient><linearGradient id="E" x1="3590.67" x2="3587.06" y1="392.15" y2="406.31" gradientTransform="matrix(-1 0 0 1 4261.57 0)" xlink:href="#c"></linearGradient><linearGradient id="F" x1="3104.77" x2="3257.06" y1="5208.46" y2="5208.46" xlink:href="#c"></linearGradient><linearGradient id="G" x1="3191.64" x2="3366.16" y1="618.68" y2="635.53" gradientTransform="matrix(-1 0 0 1 4261.57 0)" xlink:href="#c"></linearGradient><linearGradient id="H" x1="3190.68" x2="3365.21" y1="628.57" y2="645.41" gradientTransform="matrix(-1 0 0 1 4261.57 0)" xlink:href="#c"></linearGradient><linearGradient id="I" x1="3189.33" x2="3363.86" y1="642.55" y2="659.39" gradientTransform="matrix(-1 0 0 1 4261.57 0)" xlink:href="#c"></linearGradient><linearGradient id="J" x1="3190.46" x2="3366.96" y1="627.4" y2="644.43" gradientTransform="matrix(-1 0 0 1 4261.57 0)" xlink:href="#c"></linearGradient><linearGradient id="K" x1="3193.3" x2="3367.83" y1="601.45" y2="618.29" gradientTransform="matrix(-1 0 0 1 4261.57 0)" xlink:href="#c"></linearGradient><linearGradient id="L" x1="3193.33" x2="3367.86" y1="601.14" y2="617.98" gradientTransform="matrix(-1 0 0 1 4261.57 0)" xlink:href="#c"></linearGradient><linearGradient id="M" x1="3227.97" x2="3221.79" y1="5211.29" y2="5231.97" xlink:href="#c"></linearGradient><linearGradient id="N" x1="3226.81" x2="3222.95" y1="617.41" y2="632.54" gradientTransform="matrix(-1 0 0 1 4261.57 0)" xlink:href="#c"></linearGradient><linearGradient id="O" x1="3190.68" x2="3365.2" y1="628.64" y2="645.48" gradientTransform="matrix(-1 0 0 1 4261.57 0)" xlink:href="#c"></linearGradient><linearGradient id="P" x1="3188.9" x2="3365.48" y1="642.76" y2="659.8" gradientTransform="matrix(-1 0 0 1 4261.57 0)" xlink:href="#c"></linearGradient><linearGradient id="Q" x1="3226.68" x2="3223.08" y1="617.9" y2="632.05" gradientTransform="matrix(-1 0 0 1 4261.57 0)" xlink:href="#c"></linearGradient><linearGradient id="R" x1="3252.92" x2="3029.52" y1="754.88" y2="698.18" gradientTransform="matrix(-1 0 0 1 3722.95 0)" xlink:href="#g"></linearGradient><linearGradient id="S" x1="3467.5" x2="3234.17" y1="849.76" y2="790.54" gradientTransform="matrix(-1 0 0 1 3722.95 0)" xlink:href="#g"></linearGradient><linearGradient id="T" x1="3265.19" x2="3271" y1="504.44" y2="504.44" gradientTransform="matrix(-1 0 0 1 3822.42 0)" xlink:href="#b"></linearGradient><linearGradient id="U" x1="3266.65" x2="3272.78" y1="496.8" y2="463.13" gradientTransform="matrix(-1 0 0 1 3822.42 0)" xlink:href="#d"></linearGradient><linearGradient id="V" x1="3268.97" x2="3275.1" y1="497.22" y2="463.55" gradientTransform="matrix(-1 0 0 1 3822.42 0)" xlink:href="#d"></linearGradient><linearGradient id="W" x1="3265.11" x2="3282.18" y1="489.74" y2="455.69" gradientTransform="matrix(-1 0 0 1 3822.42 0)" xlink:href="#d"></linearGradient><linearGradient id="X" x1="1704.91" x2="1737.75" y1="-3375.07" y2="-3632.4" gradientTransform="matrix(-.03 1 1 .03 3946.57 -1115.36)" xlink:href="#e"></linearGradient><linearGradient id="Y" x1="-4665.07" x2="-4632.23" y1="-32.53" y2="-289.84" gradientTransform="matrix(-.98 -.21 -.21 .98 -4206.72 -305.09)" xlink:href="#e"></linearGradient><linearGradient id="Z" x1="-500.71" x2="-475.23" y1="511.75" y2="400.47" gradientTransform="translate(909.3)" xlink:href="#e"></linearGradient><linearGradient id="h" x1="-5035.6" x2="-5043.95" y1="382.64" y2="776.07" gradientTransform="matrix(-1 0 0 1 -4621.7 0)" gradientUnits="userSpaceOnUse"><stop offset="0" stop-color="#060180"></stop><stop offset="1" stop-color="#2b2cb2"></stop></linearGradient><linearGradient id="aa" x1="-5037.73" x2="-5045.99" y1="405.55" y2="794.52" xlink:href="#h"></linearGradient><linearGradient id="i" x1="-5545.25" x2="-5497.39" y1="-240.35" y2="-240.35" gradientTransform="matrix(-.97 -.22 -.22 .97 -4974.25 -658.45)" gradientUnits="userSpaceOnUse"><stop offset="0" stop-color="#feae6e"></stop><stop offset="1" stop-color="#ff5a72"></stop></linearGradient><linearGradient id="ab" x1="-5525.45" x2="-5459.5" y1="-227.24" y2="-227.24" xlink:href="#i"></linearGradient><linearGradient id="ac" x1="-503.23" x2="-477.76" y1="-2280.63" y2="-2391.92" gradientTransform="translate(934.74 2824.98)" xlink:href="#e"></linearGradient><linearGradient id="ad" x1="-451.95" x2="-426.47" y1="522.91" y2="411.63" gradientTransform="translate(909.3)" xlink:href="#e"></linearGradient><linearGradient id="j" x1="3141.33" x2="3241.05" y1="222.92" y2="387.34" gradientTransform="matrix(-1 0 0 1 3822.42 0)" gradientUnits="userSpaceOnUse"><stop offset="0" stop-color="#f7f9fc"></stop><stop offset=".52" stop-color="#d0d4f9"></stop><stop offset="1" stop-color="#636c9e"></stop></linearGradient><linearGradient id="ae" x1="3122.49" x2="3222.2" y1="234.35" y2="398.76" xlink:href="#j"></linearGradient><linearGradient id="af" x1="3188.12" x2="3176.3" y1="470.18" y2="663.52" gradientTransform="matrix(-1 0 0 1 3822.42 0)" gradientUnits="userSpaceOnUse"><stop offset="0" stop-color="#060180"></stop><stop offset="1" stop-color="#2829de"></stop></linearGradient><linearGradient id="ag" x1="3149.14" x2="3209.6" y1="216.28" y2="482.53" xlink:href="#j"></linearGradient><linearGradient id="ah" x1="3268.1" x2="3372.58" y1="84.51" y2="204.38" gradientTransform="matrix(-.99 .16 .16 .99 3894.92 -250.38)" xlink:href="#j"></linearGradient><linearGradient id="ai" x1="3267.31" x2="3371.8" y1="85.2" y2="205.06" gradientTransform="matrix(-.99 .16 .16 .99 3894.92 -250.38)" xlink:href="#j"></linearGradient><linearGradient id="aj" x1="9673.28" x2="9819.61" y1="1590.95" y2="1648.95" gradientTransform="matrix(1 0 0 -1 -8785.72 2567.1)" gradientUnits="userSpaceOnUse"><stop offset="0" stop-color="#fff"></stop><stop offset=".15" stop-color="#fbfbfc"></stop><stop offset=".31" stop-color="#edeef4"></stop><stop offset=".48" stop-color="#d8dae6"></stop><stop offset=".65" stop-color="#b9bdd3"></stop><stop offset=".83" stop-color="#9298bb"></stop><stop offset="1" stop-color="#636c9e"></stop></linearGradient><linearGradient id="ak" x1="9843.06" x2="9601.39" y1="744.76" y2="893.59" gradientTransform="matrix(-1 0 0 1 10741.19 0)" xlink:href="#i"></linearGradient><linearGradient id="al" x1="9395.54" x2="9722.32" y1="1066.31" y2="838.48" gradientTransform="matrix(-1 0 0 1 10741.19 0)" xlink:href="#e"></linearGradient><linearGradient id="am" x1="9661.36" x2="9625.42" y1="801.8" y2="801.8" gradientTransform="matrix(-1 0 0 1 10741.19 0)" xlink:href="#d"></linearGradient><linearGradient id="an" x1="9695.34" x2="9633.21" y1="792.43" y2="795.36" gradientTransform="matrix(-1 0 0 1 10741.19 0)" xlink:href="#d"></linearGradient></defs><g data-name="Ñëîé 1"><path d="M829.64,1044.44s-11.9-2.11-16.7-4.88c-5.65-3.27-9.15-7.78-9.17-12.76,0-9.21,25.9-17.51,25.9-17.51.78-.25,1.18-.84.9-1.33L818.79,991.6a2.73,2.73,0,0,0-2.26-.57s-28.48,4.77-39.78-1.74-3.12-23-3.12-23c.25-.49-.2-1.08-1-1.3l-28.37-6.76a3,3,0,0,0-.79,0L695.35,947l-15.23,11.31a2.55,2.55,0,0,0-1,0l-9.78,2.34c-11.49-6.61-3.3-23.06-3.3-23.06.24-.49-.21-1.08-1-1.3l-28.37-6.76a2.82,2.82,0,0,0-2.3.52s-14.31,15-30.26,15c-8.66,0-16.5-2-22.18-5.3-4.78-2.76-8.44-9.59-8.44-9.59a2,2,0,0,0-2-.59l-28.34,6.79c-.8.23-1.24.82-1,1.31,0,0,8.25,16.44-3,23s-39.77,1.79-39.77,1.79a2.72,2.72,0,0,0-2.26.58l-11.72,16.37c-.28.49.13,1.08.9,1.33,0,0,26,8.27,26,17.48s-25.93,17.5-25.93,17.5c-.77.24-1.17.84-.89,1.32l11.75,16.37a2.72,2.72,0,0,0,2.26.58s28.49-4.76,39.78,1.75,3.08,23,3.08,23c-.25.49.2,1.07,1,1.3l107.34,28.64c.29.1,28.65,6.87,28.65,6.87a2.82,2.82,0,0,0,2.3-.52s14.33-15,30.28-15,30.3,15,30.3,15a2.8,2.8,0,0,0,2.3.51l28.35-6.78c.79-.22,1.24-.81,1-1.3,0,0-8.22-16.45,3.06-23s39.88-1.88,39.88-1.88A2.75,2.75,0,0,0,819,1062l11.69-16.39C831,1045.11,830.49,1044.59,829.64,1044.44Z" style="mix-blend-mode:multiply" fill="url(#a)" opacity=".5"></path><path fill="#636c9e" d="M722.94,983c.18,0,.18-21.16.18-21.16l-58.93-16.26a31,31,0,0,1,1.82-4.88.7.7,0,0,0,.06-.35V919.61l-41.68,11.21-30.68.08-51.56-11.29v20.57l-10.5,14.08L485.26,962v20.81c0,.42.36.86,1,1.06,0,0,10.88,3.47,18.56,8.41l-19.49,6.81v20.67a.58.58,0,0,0,.08.42l11.75,16.36a2.72,2.72,0,0,0,2.26.58s28.49-4.76,39.78,1.76,3.08,23,3.08,23c-.25.49.2,1.07,1,1.3l28.36,6.77a2.82,2.82,0,0,0,2.3-.52s14.33-15,30.28-15,30.3,15,30.3,15a2.85,2.85,0,0,0,2.3.52l28.35-6.79a1.34,1.34,0,0,0,1.05-.9c0-.13,0-21,0-21a12.25,12.25,0,0,1,3-2.41c11.38-6.59,39.88-1.88,39.88-1.88a2.75,2.75,0,0,0,2.26-.57L723,1020a.52.52,0,0,0,0-.55c.07,0,.07-20.66.07-20.66l-8,1.44-12.4-7.58c7.68-5.23,19.31-8.95,19.31-8.95A1.51,1.51,0,0,0,722.94,983Zm-82.34,21.18c-20.11,11.61-52.72,11.61-72.84,0-6.64-3.84-11.09-8.46-13.34-13.35,2.25-4.89,6.7-9.51,13.34-13.35,20.12-11.61,52.73-11.61,72.84,0,6.65,3.84,11.09,8.46,13.35,13.35C651.69,995.75,647.25,1000.37,640.6,1004.21Z"></path><path fill="url(#b)" d="M722.94,980.27c.18,0,.18-21.16.18-21.16l-58.93-16.26A31,31,0,0,1,666,938a.7.7,0,0,0,.06-.35V916.85l-41.68,11.21-30.68.08-51.56-11.29v20.57l-10.5,14.08-46.39,7.71V980c0,.42.36.86,1,1.06,0,0,10.88,3.47,18.56,8.41l-19.49,6.81V1017a.58.58,0,0,0,.08.42l11.75,16.36a2.72,2.72,0,0,0,2.26.58s28.49-4.76,39.78,1.76,3.08,23,3.08,23c-.25.49.2,1.07,1,1.3l28.36,6.77a2.82,2.82,0,0,0,2.3-.52s14.33-15,30.28-15,30.3,15,30.3,15a2.85,2.85,0,0,0,2.3.52l28.35-6.78a1.36,1.36,0,0,0,1.05-.91c0-.13,0-21,0-21a12.25,12.25,0,0,1,3-2.41c11.38-6.59,39.88-1.88,39.88-1.88a2.75,2.75,0,0,0,2.26-.57L723,1017.23a.52.52,0,0,0,0-.55c.07,0,.07-20.66.07-20.66l-8,1.44-12.4-7.58c7.68-5.23,19.31-9,19.31-9A1.51,1.51,0,0,0,722.94,980.27Zm-82.34,21.18c-20.11,11.61-52.72,11.61-72.84,0-6.64-3.84-11.09-8.46-13.34-13.35,2.25-4.89,6.7-9.51,13.34-13.35,20.12-11.61,52.73-11.61,72.84,0,6.65,3.84,11.09,8.46,13.35,13.35C651.69,993,647.25,997.61,640.6,1001.45Z"></path><path fill="#fff" d="M542.21 1038.52a.51.51 0 01.06-.32s8.2-16.45-3.08-23c-4.59-2.65-12-3.44-19.23-3.44a141.49 141.49 0 00-20.55 1.68 3.89 3.89 0 01-.49 0 2.46 2.46 0 01-1.77-.62L485.4 996.54c-.08-.24-.08 4-.08 4l9.89 13.79a4.79 4.79 0 003.71 1.6 5.06 5.06 0 00.88-.07 140.49 140.49 0 0120.16-1.64c8.27 0 14.5 1.08 18 3.11 8.45 4.88 3.29 17.3 2.3 19.5A12.35 12.35 0 01542.21 1038.52zM723.12 996a.53.53 0 01-.08.36l-11.69 16.39a2.5 2.5 0 01-1.77.61 2.63 2.63 0 01-.49 0 141.07 141.07 0 00-20.42-1.64c-7.25 0-14.74.78-19.34 3.45-11.4 6.58-3.18 23-3.18 23 .24.49-.2 1.08-1 1.31l-28.35 6.78a3.43 3.43 0 01-.56 0 2.56 2.56 0 01-1.74-.57s-14.34-15-30.3-15-30.28 15-30.28 15a3 3 0 01-2.3.51l-28.36-6.77a1.61 1.61 0 01-.4-.17 11.7 11.7 0 011.5 2.89l26.71 6.37a5.07 5.07 0 001.11.12 4.81 4.81 0 003.46-1.31c.14-.14 13.84-14.24 28.56-14.24s28.44 14.1 28.58 14.24a4.85 4.85 0 003.46 1.3 5.66 5.66 0 001-.09l28.46-6.8c.24-.07.37-.12.5-.17v-3.16a11.69 11.69 0 011.91-1.7c-1-2.21-6.12-14.64 2.28-19.49 3.66-2.12 9.94-3.21 18.27-3.21a140.11 140.11 0 0120 1.62 6.13 6.13 0 00.87.07 4.69 4.69 0 003.58-1.45c.13-.17 10-13.94 10-13.94zM723 959.08c0 .4-.37.81-1 1 0 0-25.93 8.3-25.9 17.51 0 4.47 2.83 8.55 7.49 11.7.73-.47 1.49-.93 2.27-1.37-4.75-2.91-7.37-6.56-7.38-10.33 0-1.29 1.12-4.84 11.62-10.07a102.91 102.91 0 0112.62-5.17l.35-.13v-3.11zM485.26 959.21v3.2a106.52 106.52 0 0113 5.27c10.48 5.2 11.61 8.75 11.61 10s-1 4.4-9.74 9.09c.84.43 1.68.88 2.49 1.35 5.21-3 9.64-6.63 9.64-10.44 0-9.21-26-17.48-26-17.48-.62-.19-1-.61-1-1zM666 917.12s-6.49 13 .06 20.5v-5a17 17 0 010-8.3v-7.52A.88.88 0 01666 917.12zM542.15 932.63v4.79l-.83 1.11c7.55-7 1.32-20.28.83-21.27v7.5A16.75 16.75 0 01542.15 932.63zM639.37 957.36c-9.72-5.61-22.45-8.42-35.19-8.42s-25.47 2.81-35.19 8.42c-13 7.52-17.31 18.16-12.89 27.75a25.61 25.61 0 011.66-2.22 15 15 0 01-1-5.21c0-6.79 4.76-13.27 13.38-18.26 9.05-5.22 21.12-8.09 34-8.09s25 2.87 34 8.09c8.63 5 13.38 11.47 13.38 18.26a14.94 14.94 0 01-.95 5.21 23.58 23.58 0 011.65 2.22C656.69 975.52 652.39 964.88 639.37 957.36z"></path><path fill="#eeeef6" d="M666.15,1038.18s-8.22-16.45,3.06-23,39.88-1.88,39.88-1.88a2.75,2.75,0,0,0,2.26-.57L723,996.38c.28-.48-.18-1-1-1.15,0,0-11.89-2.11-16.69-4.88-5.66-3.27-9.16-7.78-9.17-12.76,0-9.21,25.9-17.51,25.9-17.51.77-.25,1.17-.84.89-1.33l-11.78-16.36a2.72,2.72,0,0,0-2.26-.57s-28.48,4.77-39.78-1.74-3.11-23-3.11-23c.24-.49-.21-1.08-1-1.3l-28.37-6.76a2.82,2.82,0,0,0-2.3.52s-14.31,15-30.26,15c-8.66,0-16.5-2-22.18-5.3-4.78-2.75-8.44-9.59-8.44-9.59a2,2,0,0,0-2-.59l-28.35,6.8c-.79.22-1.23.81-1,1.3,0,0,8.25,16.45-3,23S499.33,942,499.33,942a2.72,2.72,0,0,0-2.26.58l-11.72,16.38c-.28.48.13,1.08.9,1.32,0,0,26,8.27,26,17.48s-25.93,17.5-25.93,17.5c-.77.24-1.17.84-.89,1.33l11.75,16.36a2.72,2.72,0,0,0,2.26.58s28.49-4.76,39.78,1.76,3.08,23,3.08,23c-.25.49.2,1.07,1,1.3l28.36,6.77a2.85,2.85,0,0,0,2.3-.51s14.33-15,30.28-15,30.3,15,30.3,15a2.85,2.85,0,0,0,2.3.52l28.35-6.78C666,1039.26,666.39,1038.67,666.15,1038.18ZM569,998c-19.43-11.22-19.43-29.41,0-40.63s51-11.22,70.38,0,19.44,29.41,0,40.63S588.43,1009.21,569,998Z"></path><path d="M498.88,987.47s-7.21-1.28-10.11-3c-3.42-2-5.54-4.71-5.55-7.72,0-5.58,15.68-10.6,15.68-10.6.46-.15.71-.51.54-.8l-7.13-9.91a1.67,1.67,0,0,0-1.37-.34s-17.24,2.88-24.08-1.06S465,940.19,465,940.19c.14-.3-.13-.65-.61-.79l-17.17-4.09a1.91,1.91,0,0,0-.48,0l-29.12-6.79-9.22,6.85a1.67,1.67,0,0,0-.63,0l-5.92,1.42c-6.95-4-2-14-2-14,.15-.3-.12-.65-.6-.79l-17.17-4.09a1.72,1.72,0,0,0-1.4.32s-8.65,9.07-18.31,9.08a27.35,27.35,0,0,1-13.42-3.21c-2.9-1.67-5.12-5.8-5.12-5.8a1.16,1.16,0,0,0-1.2-.36l-17.16,4.11c-.48.14-.75.49-.6.79,0,0,5,9.95-1.83,13.9s-24.08,1.08-24.08,1.08a1.65,1.65,0,0,0-1.36.35l-7.09,9.91c-.17.3.07.66.54.81,0,0,15.71,5,15.72,10.57s-15.69,10.6-15.69,10.6c-.47.14-.72.51-.55.8l7.12,9.91a1.64,1.64,0,0,0,1.36.34s17.25-2.87,24.08,1.07,1.86,13.9,1.86,13.9c-.14.29.13.65.61.78l65,17.34c.17.06,17.34,4.16,17.34,4.16a1.7,1.7,0,0,0,1.39-.31s8.67-9.07,18.33-9.07S445.9,1018,445.9,1018a1.76,1.76,0,0,0,1.4.32l17.16-4.11c.48-.14.75-.49.6-.79,0,0-5-10,1.86-13.9s24.14-1.13,24.14-1.13a1.65,1.65,0,0,0,1.36-.35l7.08-9.92C499.67,987.87,499.39,987.56,498.88,987.47Z" style="mix-blend-mode:multiply" fill="url(#k)" opacity=".5"></path><path fill="#636c9e" d="M434.29,950.3c.11,0,.11-12.81.11-12.81l-35.66-9.84a18.68,18.68,0,0,1,1.09-3,.32.32,0,0,0,0-.21V911.91l-25.23,6.78-18.57.06-31.2-6.84v12.45l-6.36,8.53-28.08,4.66v12.6c0,.25.22.52.6.64a56,56,0,0,1,11.23,5.09L290.46,960v12.51a.45.45,0,0,0,.05.25l7.12,9.91A1.68,1.68,0,0,0,299,983s17.25-2.88,24.08,1.06,1.86,13.9,1.86,13.9c-.14.29.13.65.61.79l17.16,4.1a1.72,1.72,0,0,0,1.39-.32s8.68-9.07,18.33-9.07,18.34,9.07,18.34,9.07a1.7,1.7,0,0,0,1.39.31l17.17-4.1a.82.82,0,0,0,.63-.55c0-.08,0-12.68,0-12.68a7.24,7.24,0,0,1,1.81-1.46c6.89-4,24.14-1.14,24.14-1.14a1.63,1.63,0,0,0,1.37-.35l7.07-9.91a.32.32,0,0,0,0-.34s0-12.5,0-12.5l-4.83.87-7.5-4.59a54.16,54.16,0,0,1,11.68-5.41A1,1,0,0,0,434.29,950.3Zm-49.83,12.81c-12.18,7-31.92,7-44.09,0-4-2.32-6.72-5.12-8.08-8.08,1.36-2.95,4.06-5.75,8.08-8.07,12.17-7,31.91-7,44.09,0,4,2.32,6.71,5.12,8.07,8.08C391.17,958,388.48,960.79,384.46,963.11Z"></path><path fill="url(#l)" d="M434.29,948.63c.11,0,.11-12.81.11-12.81L398.74,926a18.68,18.68,0,0,1,1.09-3,.32.32,0,0,0,0-.21V910.24L374.64,917l-18.57.06-31.2-6.84v12.45l-6.36,8.52-28.08,4.67v12.6c0,.25.22.51.6.64a56,56,0,0,1,11.23,5.09l-11.8,4.12v12.51a.45.45,0,0,0,.05.25l7.12,9.91a1.64,1.64,0,0,0,1.36.34s17.25-2.87,24.08,1.07,1.86,13.9,1.86,13.9c-.14.29.13.65.61.79l17.16,4.1a1.72,1.72,0,0,0,1.39-.32s8.68-9.07,18.33-9.07,18.34,9.07,18.34,9.07a1.7,1.7,0,0,0,1.39.31l17.17-4.1a.82.82,0,0,0,.63-.55c0-.08,0-12.68,0-12.68a7.24,7.24,0,0,1,1.81-1.46c6.89-4,24.14-1.14,24.14-1.14a1.63,1.63,0,0,0,1.37-.35l7.07-9.91a.32.32,0,0,0,0-.34s0-12.5,0-12.5l-4.83.87-7.5-4.59A54.16,54.16,0,0,1,433.75,949,1,1,0,0,0,434.29,948.63Zm-49.83,12.81c-12.18,7-31.92,7-44.09,0-4-2.32-6.72-5.12-8.08-8.08,1.36-3,4.06-5.75,8.08-8.07,12.17-7,31.91-7,44.09,0,4,2.32,6.71,5.12,8.07,8.07C391.17,956.32,388.48,959.12,384.46,961.44Z"></path><path fill="#fff" d="M324.9 983.88a.32.32 0 010-.19s5-10-1.86-13.9c-2.78-1.6-7.28-2.08-11.64-2.08a86.38 86.38 0 00-12.44 1 1.36 1.36 0 01-.29 0 1.53 1.53 0 01-1.07-.37l-7.12-9.91c0-.14-.05 2.41-.05 2.41l6 8.34a2.84 2.84 0 002.24 1 3.08 3.08 0 00.53 0 85.57 85.57 0 0112.2-1c5 0 8.78.65 10.92 1.88 5.11 3 2 10.47 1.39 11.8A7.33 7.33 0 01324.9 983.88zM434.4 958.16a.3.3 0 010 .22l-7.07 9.91a1.52 1.52 0 01-1.08.38 1.43 1.43 0 01-.29 0 86.76 86.76 0 00-12.36-1c-4.39 0-8.92.47-11.71 2.09-6.9 4-1.92 13.94-1.92 13.94.15.3-.12.65-.6.79l-17.17 4.1a1.87 1.87 0 01-.34 0 1.55 1.55 0 01-1.05-.34s-8.68-9.07-18.34-9.07-18.33 9.07-18.33 9.07a1.56 1.56 0 01-1 .35 2 2 0 01-.34 0l-17.16-4.1-.25-.1a6.73 6.73 0 01.91 1.74L342.37 990a3.39 3.39 0 00.67.07 2.93 2.93 0 002.1-.79c.08-.09 8.37-8.62 17.28-8.62s17.22 8.53 17.3 8.62a2.94 2.94 0 002.09.79 3.18 3.18 0 00.62-.06l17.22-4.12.31-.1v-1.91a7.2 7.2 0 011.15-1c-.6-1.34-3.7-8.86 1.38-11.8 2.22-1.28 6-1.94 11.06-1.94a85.16 85.16 0 0112.13 1 3 3 0 00.52 0 2.85 2.85 0 002.17-.88c.08-.1 6-8.43 6-8.43zM434.34 935.8c0 .24-.22.49-.59.61 0 0-15.69 5-15.68 10.59 0 2.71 1.72 5.18 4.54 7.09.44-.29.9-.57 1.38-.83-2.88-1.77-4.47-4-4.47-6.26 0-.78.68-2.93 7-6.09a60.54 60.54 0 017.64-3.13l.21-.08v-1.88zM290.43 935.88v1.93a65.76 65.76 0 017.84 3.19c6.35 3.15 7 5.3 7 6.08s-.59 2.66-5.89 5.5c.51.26 1 .53 1.51.81 3.15-1.8 5.83-4 5.83-6.31 0-5.58-15.72-10.58-15.72-10.58-.37-.12-.6-.38-.59-.62zM399.83 910.4s-3.92 7.9 0 12.41v-3a10.28 10.28 0 010-5v-4.55A.29.29 0 01399.83 910.4zM324.87 919.79v2.9l-.5.67c4.57-4.24.79-12.27.5-12.87V915A10.21 10.21 0 01324.87 919.79zM383.71 934.76c-5.88-3.4-13.59-5.1-21.3-5.1s-15.42 1.7-21.3 5.1c-7.88 4.55-10.48 11-7.8 16.79a15 15 0 011-1.34 9.1 9.1 0 01-.58-3.16c0-4.1 2.88-8 8.1-11 5.48-3.16 12.78-4.9 20.58-4.9s15.11 1.74 20.58 4.9c5.22 3 8.1 6.94 8.1 11a9.1 9.1 0 01-.58 3.16 15 15 0 011 1.34C394.19 945.75 391.59 939.31 383.71 934.76z"></path><path fill="#eeeef6" d="M399.92,983.68s-5-10,1.85-13.9,24.14-1.14,24.14-1.14a1.63,1.63,0,0,0,1.37-.35l7.07-9.91c.17-.29-.11-.61-.62-.7,0,0-7.2-1.28-10.1-3-3.43-2-5.55-4.7-5.56-7.72,0-5.57,15.68-10.59,15.68-10.59.47-.15.71-.52.54-.81l-7.13-9.9a1.65,1.65,0,0,0-1.36-.35s-17.24,2.89-24.08-1.05-1.89-13.9-1.89-13.9c.15-.29-.12-.65-.6-.79l-17.17-4.09a1.76,1.76,0,0,0-1.4.32s-8.65,9.07-18.31,9.08a27.25,27.25,0,0,1-13.42-3.21c-2.9-1.67-5.12-5.8-5.12-5.8a1.16,1.16,0,0,0-1.2-.36l-17.16,4.11c-.48.14-.75.49-.6.79,0,0,5,9.95-1.83,13.9s-24.08,1.08-24.08,1.08a1.68,1.68,0,0,0-1.36.35l-7.09,9.91c-.17.3.07.66.54.81,0,0,15.71,5,15.72,10.58s-15.69,10.59-15.69,10.59c-.47.15-.72.51-.55.8l7.12,9.91a1.64,1.64,0,0,0,1.36.34s17.25-2.87,24.08,1.07,1.86,13.9,1.86,13.9c-.14.29.13.65.61.79l17.16,4.1a1.72,1.72,0,0,0,1.39-.32s8.68-9.07,18.33-9.07,18.34,9.07,18.34,9.07a1.7,1.7,0,0,0,1.39.31l17.17-4.1C399.8,984.33,400.07,984,399.92,983.68Zm-58.81-24.33c-11.76-6.79-11.76-17.8,0-24.59s30.84-6.79,42.6,0,11.76,17.8,0,24.59S352.88,966.14,341.11,959.35Z"></path><path d="M487.57,225.32l260.52-70.77c34-12.6,65.27-20.21,83.81-22.76,55.71-7.69,457.37,296.54,516.68,396.9v15.06c0,15.32-60.84,68.79-124.66,102.79a189.12,189.12,0,0,1-35.12,14.54l.09.15L853.52,753.07c-47,14.17-82.42,3-97.43-1.8-117.81-54.13-383-245.16-383-245.16L267.56,426.77,255,410.07C237.92,300,418.88,237.72,487.57,225.32Z" style="mix-blend-mode:multiply" fill="url(#g)" opacity=".5"></path><polygon fill="#383097" points="686.65 306.13 679.25 349.29 638.34 360.95 646.24 317.52 656.3 284.87 686.65 306.13"></polygon><path fill="#191468" d="M1178.85,624.62c14.36,1.54,48.39-3.37,108.21-48,43.12-32.16,55.78-60.93,59.49-74.48v28.53C1333,550.46,1311,576,1291.14,590.53c-47.44,34.57-91.51,45.57-110.87,49.6S1163.17,622.94,1178.85,624.62Z"></path><path fill="url(#d)" d="M1182.06,345.69s41.48-18.53,41.3-32.81-27.1,3.12-31.59,6.83-8.78,16.84-8.78,16.84l-3,2.1v8.41Z"></path><path fill="#0e0e49" d="M665.66,324.89l.16-.1c9.36-5.35,23.1-4.19,38.42,4.66,28.1,16.22,50.88,52.16,50.88,80.26,0,12.58-4.57,21.46-12.14,26l-.16.1-.17.1-27.11,15.79-63.33-40.62-11.13-71.73Z"></path><path fill="url(#c)" d="M638.34,361c0,25.3,20.51,57.65,45.81,72.26,20,11.57,37.07,8.53,43.28-5.81a8,8,0,0,1-4.65-2.34,9.53,9.53,0,0,1-2.47-6c-.09-.9-.19-1.8-.3-2.69-1-6.55-2.36-13-3.1-19.6.05.31.09.62.13.93-.22-1.85-.34-3.7-.53-5.55a17.1,17.1,0,0,0-.83-2.81c-1.46-3.18-3.3-6.18-4.71-9.38-1.1-2.5-2.26-5-3.52-7.38a11.71,11.71,0,0,1-.85-1.09c-1.29-1.92-2.48-3.9-3.83-5.78a20.73,20.73,0,0,0-2.06-2.13c-1.26-.84-2.6-1.54-3.89-2.32-1.8-1.07-3.58-2.19-5.35-3.33-3.47-2.25-6.87-4.61-10.26-7a12.7,12.7,0,0,1-2-1.67l-.52-.25c-4.85-1.87-10-2.84-15-4.05-3-.71-5.91-1.33-8.93-1.79a49.91,49.91,0,0,1-9.2-2l-.55-.21C640.8,345.44,638.34,352.2,638.34,361Zm16,9.24a20.85,20.85,0,0,1,2.34-10.25,13,13,0,0,1,6.39-5.79,17.47,17.47,0,0,1,9.48-.92,34,34,0,0,1,11.6,4.36,56.87,56.87,0,0,1,11.6,9,69.17,69.17,0,0,1,9.47,11.86,61.8,61.8,0,0,1,6.39,13.17A40.25,40.25,0,0,1,714,404.61a20.74,20.74,0,0,1-2.34,10.25,13,13,0,0,1-6.39,5.79,17.43,17.43,0,0,1-9.47.92,34,34,0,0,1-11.6-4.36,56.6,56.6,0,0,1-11.6-9,69.22,69.22,0,0,1-9.48-11.86,61.8,61.8,0,0,1-6.39-13.17A40.57,40.57,0,0,1,654.34,370.19Z"></path><path fill="#191468" d="M678,357.22a72.54,72.54,0,0,1,15,11.64,88,88,0,0,1,6.52,7.31,88.92,88.92,0,0,1,5.69,8,87.64,87.64,0,0,1,4.7,8.41,73.45,73.45,0,0,1,3.54,8.56,52.23,52.23,0,0,1,3,16.69,26.82,26.82,0,0,1-3,13.21,17.4,17.4,0,0,1-3.54,4.48,16.9,16.9,0,0,1-4.7,3,19.31,19.31,0,0,1-5.69,1.41,26.24,26.24,0,0,1-6.52-.22,43.54,43.54,0,0,1-15-5.62,72.94,72.94,0,0,1-14.95-11.65,87.81,87.81,0,0,1-6.52-7.3,91.23,91.23,0,0,1-5.7-8,84.14,84.14,0,0,1-4.69-8.4,74.3,74.3,0,0,1-3.54-8.57,52.16,52.16,0,0,1-3-16.69,26.85,26.85,0,0,1,3-13.21,17.52,17.52,0,0,1,3.54-4.47,16.27,16.27,0,0,1,4.69-3,19.47,19.47,0,0,1,5.7-1.42,26.26,26.26,0,0,1,6.52.23A43.54,43.54,0,0,1,678,357.22Zm0-12.47c-28.1-16.22-50.88-6.59-50.88,21.51s22.78,64,50.88,80.25,50.88,6.6,50.88-21.5S706.14,361,678,344.75Z"></path><path fill="url(#m)" d="M678,363.52a60.92,60.92,0,0,1,12.5,9.73A75.08,75.08,0,0,1,700.75,386a66.55,66.55,0,0,1,6.88,14.19,43.47,43.47,0,0,1,2.52,14,22.36,22.36,0,0,1-2.52,11,13.93,13.93,0,0,1-6.88,6.23,18.63,18.63,0,0,1-10.21,1,36.51,36.51,0,0,1-12.5-4.69,60.72,60.72,0,0,1-12.5-9.74,74.3,74.3,0,0,1-10.21-12.78A67.08,67.08,0,0,1,648.44,391a43.69,43.69,0,0,1-2.52-14,22.44,22.44,0,0,1,2.52-11,14.06,14.06,0,0,1,6.89-6.24,18.63,18.63,0,0,1,10.21-1,36.41,36.41,0,0,1,12.5,4.7Zm0-6.56c-21.36-12.34-38.68-5-38.68,16.34s17.32,48.68,38.68,61,38.68,5,38.68-16.35S699.4,369.29,678,357Z"></path><path fill="url(#n)" d="M654.34,403.59a67.21,67.21,0,0,0,4.9,7.13,66,66,0,0,0,5.66,6.5s-3.18-3.2-.3-5.57,8.6-4.57,8.6-4.57L665,396.51a31.7,31.7,0,0,1-6.23,7.64C655.23,407.07,654.34,403.59,654.34,403.59Z"></path><path fill="url(#o)" d="M690.87,432.21a19.27,19.27,0,0,0,5.66,0,13.58,13.58,0,0,0,4.89-1.48s-12.24-5-15.12-10.74-6.23-14.82-6.23-14.82l-8.19,1.12a157.15,157.15,0,0,1,8.6,14.5A32.87,32.87,0,0,0,690.87,432.21Z"></path><path fill="url(#p)" d="M710.15,411.05a33,33,0,0,0-1.13-7.37,33.62,33.62,0,0,0-2.63-7.17s-12.24,4.76-17,3.43a107.44,107.44,0,0,1-12.64-5l2.88,11.3a54.16,54.16,0,0,1,11.8,1.77C697.31,409.6,710.15,411.05,710.15,411.05Z"></path><path fill="url(#q)" d="M685.61,368.71a52,52,0,0,0-6.45-4.64,39.55,39.55,0,0,0-6.51-3.36s-2.74,13-2.93,17.85a67.55,67.55,0,0,1-2,11.55l10,6.2a80.1,80.1,0,0,1-.95-13.35C677.1,377,685.61,368.71,685.61,368.71Z"></path><path fill="url(#r)" d="M650.93,362.41a13.25,13.25,0,0,0-3,4.1,18.47,18.47,0,0,0-1.73,5.29s3,8.5,7.61,13,11.37,12.53,11.37,12.53l3.64-7.28a137.14,137.14,0,0,1-12.43-10.42C650.73,374.09,650.93,362.41,650.93,362.41Z"></path><path fill="url(#s)" d="M661.91,393c0,6,4.83,13.58,10.79,17s10.79,1.4,10.79-4.56-4.83-13.58-10.79-17S661.91,387,661.91,393Z"></path><path fill="url(#t)" d="M672.2,405.5c-3.31-1.91-5.9-6-5.9-9.38a4,4,0,0,1,1.82-3.65c1.35-.78,3.2-.6,5.09.49,3.31,1.91,5.9,6,5.9,9.38a4,4,0,0,1-1.82,3.65,3.77,3.77,0,0,1-1.89.48A6.53,6.53,0,0,1,672.2,405.5Zm-3.07-11.28a2.11,2.11,0,0,0-.81,1.9c0,2.6,2.24,6.1,4.89,7.62,1.22.71,2.37.9,3.06.49a2.09,2.09,0,0,0,.81-1.89c0-2.6-2.24-6.1-4.88-7.63A4.56,4.56,0,0,0,670,394,1.74,1.74,0,0,0,669.13,394.22Z"></path><path fill="#d1d4f8" d="M728.92,425c0-28.1-22.78-64-50.88-80.26-9.25-5.34-17.93-7.88-25.4-7.88a26.5,26.5,0,0,0-11.55,2.45l8-4.68a32.1,32.1,0,0,1,3.58-.19c8.11,0,17.31,2.84,26.61,8.2,13.92,8,27,21,36.81,36.48S731.34,411,731.34,425c0,8.25-1.91,15.32-5.55,20.69l-8.2,4.78C724.67,445.82,728.92,437.14,728.92,425Z" opacity=".2"></path><path fill="#191468" d="M1010.74,583.23l28-16.59s29.45-11.15,67.64,29.53c46.81,49.88,27.29-34.62,27.29-34.62l-63.91-51.34-68,9.34-6,35.51Z"></path><path fill="#0e0e49" d="M1029.65,550.63l.16-.09c9.36-5.35,23.1-4.19,38.42,4.65,28.1,16.23,50.88,52.16,50.88,80.26,0,12.59-4.57,21.46-12.14,26l-.17.1a1,1,0,0,1-.17.1l-27.1,15.79L1016.2,636.8l-11.13-71.73Z"></path><path fill="url(#u)" d="M1346.55,544.36V486.24s6.72-39.8-30.84-72.32-83.53-62.79-102.59-80.72-71.76-83.54-95.3-101.47S926.09,113.44,902,111.19s-52.14,11.22-65.59,6.17A80,80,0,0,1,814,104.47s-49.9,1.12-104.84,39.8-74,53.26-74.56,95.86v91.94l11.77,15.7s-1.12-44.64,44.85-11.67,51,73.34,54.38,86.23c20.18,10.09,265.17,160.9,265.17,160.9s-15.7-58.87,17.94-49.9,76.8,30.84,76.8,119.41c17.38,5.61,63.91,20.19,123.9-11.77S1346.55,558.76,1346.55,544.36Z"></path><path fill="#191468" d="M1213.89,602.83c-7.43,2.18-14.83,4-22.28,5.53a172.52,172.52,0,0,1-22.41,3.12l-2.81.17c-.93.05-1.87.05-2.81.08l-1.4,0h-1.41c-.93,0-1.87,0-2.8,0a104.93,104.93,0,0,1-11.2-.86l-2.79-.4c-.92-.16-1.84-.35-2.77-.52-.46-.08-.93-.15-1.39-.26l-1.37-.33-1.38-.32c-.46-.1-.92-.21-1.37-.34a107.83,107.83,0,0,1-10.9-3.62,48.14,48.14,0,0,0,4.85,3.24l1.27.74c.43.24.85.5,1.29.7l2.65,1.28c.44.22.9.4,1.35.58l1.37.55,1.38.53c.46.18.93.31,1.4.47.93.3,1.87.61,2.82.89l2.87.73c1,.26,1.92.4,2.89.6s1.94.38,2.92.5,2,.28,2.94.38l2.94.25c1,.11,2,.09,3,.14l1.47.05h1.48c1,0,2,0,2.95-.05l3-.15a104.37,104.37,0,0,0,23-4.32,107.92,107.92,0,0,0,11-4c1.78-.79,3.55-1.58,5.28-2.49S1212.26,603.89,1213.89,602.83Z" opacity=".5"></path><path fill="#191468" d="M762.72 432.5l1-.16c0-.29-4.65-29.35-11.33-54-6.41-23.62-26.58-41.39-28.58-43.1-1.54-14.53 2.54-45.9 2.79-47.77l29-57-.9-.46-29 57.14v.09c-.05.33-4.44 33.37-2.78 48.3l0 .2.16.13c.21.18 21.77 18.3 28.4 42.72S762.68 432.21 762.72 432.5zM819.72 111.6c-4.23.08-8.46.4-12.67.85-2.1.27-4.21.5-6.3.86l-3.15.5c-1 .19-2.08.4-3.12.6a180.13 180.13 0 00-24.57 6.66A190.35 190.35 0 00746.42 131c-1 .47-1.92.92-2.86 1.41l-2.8 1.52L738 135.41c-.93.5-1.87 1-2.78 1.56l-5.48 3.26-1.37.81-1.33.87-2.67 1.74a335.77 335.77 0 00-40.26 31.09 198.57 198.57 0 00-17.67 18.33l-2 2.45c-.66.83-1.29 1.69-1.93 2.53-1.32 1.67-2.51 3.42-3.72 5.17-.6.88-1.14 1.79-1.71 2.69s-1.09 1.82-1.61 2.74a39.55 39.55 0 00-2.71 5.74 39.33 39.33 0 013-5.55c.57-.89 1.11-1.79 1.74-2.64s1.19-1.74 1.83-2.57l1.92-2.52c.62-.85 1.32-1.63 2-2.45s1.34-1.63 2-2.43l2.11-2.35c.71-.78 1.39-1.58 2.12-2.34l2.19-2.28 2.19-2.27 2.27-2.2 2.28-2.19 1.13-1.1 1.17-1.06 4.7-4.23c1.57-1.4 3.21-2.72 4.81-4.09s3.2-2.74 4.87-4c3.32-2.6 6.56-5.28 10-7.75l5.06-3.78c.84-.64 1.7-1.25 2.57-1.85l2.59-1.81 5.17-3.64 1.3-.91 1.32-.86 2.64-1.72 2.64-1.73 1.31-.87 1.35-.81 5.41-3.25c.89-.56 1.82-1.05 2.74-1.56l2.77-1.52 2.76-1.52c.93-.49 1.88-.95 2.81-1.42 1.88-.94 3.74-1.93 5.65-2.82l5.73-2.62c1.92-.86 3.89-1.62 5.82-2.44s3.91-1.54 5.88-2.29a200.83 200.83 0 0124.17-7.31c1-.23 2-.49 3.08-.71l3.1-.63c2.06-.44 4.15-.74 6.22-1.12C811.31 112.5 815.5 111.94 819.72 111.6z"></path><path fill="#191468" d="M634.57,240.13c0-1.89.09-3.74.19-5.53a34.41,34.41,0,0,0,10.5,15.27c30,26.28,36.45,27.28,36.45,27.28s-23.9,6.1-47.14-8Z" opacity=".8"></path><path fill="#191468" d="M1229.05 375.7s44.92 56.75 46.6 85.75c0-8.37-11.81-50.65-45.22-90.13A7.52 7.52 0 011229.05 375.7zM1206.51 499.73s-76-3.71-119.5-43l-.76 7S1140.23 502.61 1206.51 499.73z" opacity=".5"></path><path fill="#191468" d="M1004.65,478.71c-133.18-78-332.38-231.33-334.91-233.28a5.54,5.54,0,0,1,1.32-9.77c8-2.8,26.68-9.39,56.22-8.56,35,1,75.1,11.8,119.3,32.19C891.35,280,930.83,316.85,963.92,369c19.42,30.59,36.41,66.33,49.11,103.37,1,2.77.39,5.68-1.37,7.06a4.17,4.17,0,0,1-2.6.85A8.32,8.32,0,0,1,1004.65,478.71ZM671.4,236.62a4.53,4.53,0,0,0-1.07,8c2,1.56,201.53,155.11,334.85,233.23,2.42,1.55,4.5,1.82,5.85.76s1.86-3.56,1-5.94c-16.65-48.54-66.16-166.43-165.92-212.45C791.32,234.92,750.74,228,722,228,695.94,228,679.65,233.71,671.4,236.62Z"></path><path fill="#191468" d="M689.82 249.87s175.59 135.4 294 204.78c5.63 3.6 8.11-1 6.72-5.06-12-35-53.17-134.35-144.87-176.65-90.52-41.75-138.11-36.75-154.81-30.87A4.43 4.43 0 00689.82 249.87zM1114.44 240.8l84 87.74a29.13 29.13 0 01-1.27 41.53c-39 36-126 77.08-139.42 79.55-19.5 3.6-33.56-4-40.8-15.38L956.61 339.8a6.37 6.37 0 012.48-9.11c24.73-12.56 115.51-59.71 146.28-90A6.36 6.36 0 011114.44 240.8z"></path><path fill="#0f0f59" d="M1109.83,242.37a2.84,2.84,0,0,1,2.05.88l84,87.74a25.58,25.58,0,0,1-1.11,36.47c-38.81,35.85-125.21,76.38-137.66,78.68a49.39,49.39,0,0,1-8.81.84,35.33,35.33,0,0,1-17.2-4.17,31.2,31.2,0,0,1-11.16-10.47L959.6,337.9a2.83,2.83,0,0,1,1.1-4c26.7-13.57,116.25-60.22,147.16-90.67a2.8,2.8,0,0,1,2-.81Zm0-3.54a6.34,6.34,0,0,0-4.46,1.83c-30.77,30.32-121.55,77.47-146.28,90a6.37,6.37,0,0,0-2.48,9.11l60.32,94.44c6,9.41,16.72,16.28,31.35,16.28a52.13,52.13,0,0,0,9.45-.9c13.38-2.47,100.43-43.54,139.42-79.55a29.13,29.13,0,0,0,1.27-41.53l-84-87.74a6.37,6.37,0,0,0-4.61-2Z"></path><path fill="#191468" d="M885.24,116.77,834,123.22c-.4,0-.79.09-1.19.12-7.82.62-97.77,9.24-146.18,77.52a7.94,7.94,0,0,0,6.76,12.51c16.22-.53,33.42-1.72,42.7-2.42a17.84,17.84,0,0,0,11.35-5.24c13.39-13.55,57.65-53.77,138.74-85.45A1.81,1.81,0,0,0,885.24,116.77Z"></path><path d="M1213.38,566.35s-2.44-7.75-11.66-13.59-76.56-10.23-76.56-10.23a10,10,0,0,0-9.29,16l7.07,9.47c9.09,12.17,20.55,16.8,40.13,17.4s45.6-9.94,45.6-9.94A6.43,6.43,0,0,0,1213.38,566.35Z" style="mix-blend-mode:overlay" fill="#fff" opacity=".5"></path><path fill="#191468" d="M1118.67,538.7a9.94,9.94,0,0,1,1.32.08s67.34,4.38,76.56,10.22,11.66,13.6,11.66,13.6a6.42,6.42,0,0,1-4.71,9.07s-24.59,10-44,10l-1.64,0c-19.59-.61-31-5.23-40.13-17.4l-7.07-9.47a10,10,0,0,1,8-16Zm0-2.25a12.29,12.29,0,0,0-9.76,19.64l7.07,9.47a40.58,40.58,0,0,0,17,13.76c6.5,2.77,14.39,4.22,24.81,4.54l1.71,0c18.85,0,42-9,44.6-10a8.68,8.68,0,0,0,6.15-12.07c-.42-1.23-3.36-8.84-12.54-14.66-1.53-1-4.92-2.48-16.7-4.38-6.77-1.1-15.53-2.2-26-3.26-17.27-1.75-33.68-2.85-34.84-2.92a13.24,13.24,0,0,0-1.53-.1Z"></path><path fill="#fff" d="M1208.21,562.6s-2.44-7.75-11.66-13.6S1120,538.78,1120,538.78a10,10,0,0,0-9.29,16l7.07,9.47c9.09,12.17,20.54,16.79,40.13,17.4s45.6-10,45.6-10A6.42,6.42,0,0,0,1208.21,562.6Z"></path><path fill="#191468" d="M1344.56 459.47c.1.42.21.84.31 1.26C1344.77 460.31 1344.66 459.89 1344.56 459.47zM1344.2 458.09l.33 1.28zM1343.81 456.7l.36 1.29zM1344.88 460.81c.1.43.2.85.29 1.27C1345.08 461.66 1345 461.24 1344.88 460.81z"></path><path d="M1321.91,419.81l.78.75c17.81,18.62,22.84,38.53,24,51.48-7.42,14.69-21.09,28.46-21.09,28.46a6.42,6.42,0,0,1-10.2.65,216,216,0,0,1,1.12-26.67C1317.74,462,1320.68,432.28,1321.91,419.81Z" style="mix-blend-mode:overlay" fill="#fff" opacity=".5"></path><path fill="#191468" d="M1316.69 416.6l.16-1.67a91.56 91.56 0 0121.85 28.47 90.78 90.78 0 00-19.78-26.58c-1.23 12.47-4.17 42.17-5.38 54.67a216 216 0 00-1.12 26.67 6.42 6.42 0 0010.2-.65s16.48-16.6 23.08-32.79c-.08-.42-.16-.85-.25-1.28.38 1.87.67 3.65.89 5.35-7 14.65-20.34 28.48-22 30.16a8.67 8.67 0 01-13.63.68l-.51-.59 0-.79a215.36 215.36 0 011.13-27C1312.53 458.7 1315.48 428.85 1316.69 416.6zM1343.39 455.29l.39 1.31zM1345.18 462.14c.1.43.18.85.27 1.27C1345.36 463 1345.28 462.57 1345.18 462.14zM1341.92 450.94l.49 1.38zM1339.43 444.94c.23.5.45 1 .66 1.48C1339.88 445.93 1339.66 445.44 1339.43 444.94zM1340.11 446.46c.21.48.42 1 .62 1.44C1340.53 447.42 1340.32 446.94 1340.11 446.46zM1338.71 443.41c.24.5.47 1 .7 1.5C1339.18 444.41 1339 443.91 1338.71 443.41zM1341.35 449.46c.19.47.36.93.53 1.4C1341.71 450.39 1341.54 449.93 1341.35 449.46zM1340.75 448c.2.47.39.95.57 1.42C1341.14 448.92 1341 448.44 1340.75 448zM1342.44 452.41c.16.45.31.9.46 1.34C1342.75 453.31 1342.6 452.86 1342.44 452.41zM1342.93 453.86q.22.66.42 1.32Q1343.16 454.52 1342.93 453.86z"></path><path fill="#fff" d="M1318.92,416.82c17.5,16.46,24.3,34.38,26.78,47.9-6.6,16.19-23.08,32.79-23.08,32.79a6.42,6.42,0,0,1-10.2.65,216,216,0,0,1,1.12-26.67C1314.75,459,1317.69,429.29,1318.92,416.82Z"></path><polygon points="1238.06 594.68 1308.7 553.9 1308.7 535.59 1238.06 576.37 1238.06 594.68" style="mix-blend-mode:overlay" fill="#fff" opacity=".5"></polygon><path fill="#0f0f59" d="M719,241.72c23,0,63.48,6,125.17,34.44C883,294.07,917,324.29,945.05,366a373.15,373.15,0,0,1,42.14,84.75,2.88,2.88,0,0,1,.11,1.65,4.77,4.77,0,0,1-1.57-.71l-.05,0-.06,0c-61-35.76-137.62-89.46-191.11-128.21-58-42-102.09-76-102.53-76.32l-.07-.05-.07,0a.86.86,0,0,1-.37-.85.84.84,0,0,1,.57-.7c3.91-1.38,12.62-3.69,27-3.69Zm0-3.54c-13.26,0-22.48,1.89-28.15,3.89a4.43,4.43,0,0,0-1,7.8s175.59,135.4,294,204.78a7,7,0,0,0,3.66,1.3c3,0,4.09-3.34,3.06-6.36-12-35-53.17-134.35-144.87-176.65C785.88,245.36,744.81,238.18,719,238.18Z"></path><polygon fill="url(#v)" points="732.51 287.25 756.93 235.81 746.78 231.05 722.36 282.49 732.51 287.25"></polygon><path fill="#0f0f59" d="M872.57,121.93c-72.72,30.5-113.22,66.63-127.7,81.29a14.29,14.29,0,0,1-9.09,4.2c-8.91.67-26.27,1.87-42.56,2.4h-.16a4.33,4.33,0,0,1-3.9-2.39,4.29,4.29,0,0,1,.31-4.53A160.89,160.89,0,0,1,730.74,163a207.4,207.4,0,0,1,45.37-22.9C805,129.54,828.6,127.23,833,126.87c.46,0,.92-.08,1.35-.14l38.18-4.8Zm12.93-5.18-.26,0L834,123.22c-.4,0-.79.09-1.19.12-7.82.62-97.77,9.24-146.18,77.52a7.94,7.94,0,0,0,6.48,12.51h.28c16.22-.54,33.42-1.72,42.7-2.42a17.84,17.84,0,0,0,11.35-5.24c13.39-13.55,57.65-53.77,138.74-85.45a1.82,1.82,0,0,0-.63-3.51Z"></path><path d="M1183.2,624.62c14.37,1.54,48.39-3.37,108.21-48,33-24.63,48.18-47.27,55.14-62.61v22.81c-13.6,18.68-33.18,40.66-51.06,53.69-47.44,34.57-91.5,45.57-110.86,49.6S1167.52,622.94,1183.2,624.62Z" style="mix-blend-mode:overlay" fill="#fff" opacity=".5"></path><path fill="#191468" d="M1178.85,624.62c14.36,1.54,48.39-3.37,108.21-48,43.12-32.16,55.78-60.93,59.49-74.48v28.53C1333,550.46,1311,576,1291.14,590.53c-47.44,34.57-91.51,45.57-110.87,49.6S1163.17,622.94,1178.85,624.62Z"></path><polygon fill="#0f0f59" points="845.18 395.34 845.18 400.94 832.1 393.39 832.1 398.19 821.45 392.04 821.45 387.24 821.45 386.43 821.45 381.63 845.18 395.34"></polygon><path fill="url(#e)" d="M1140.47,579.45a38.59,38.59,0,0,1-22.7-15.23l-7.07-9.47a10,10,0,0,1,9.29-16s5.59.36,13.77,1C1129.79,549.12,1128.13,563.16,1140.47,579.45Z"></path><path fill="url(#w)" d="M1317.76,428.55c.46-4.6.86-8.68,1.16-11.73,15.37,14.46,22.49,30.05,25.67,42.79C1337.21,438.51,1324.84,431.11,1317.76,428.55Z"></path><path d="M1298.36,487.33c3.54-2.09,5.74-.51,4.89,3.51l-7.62,36.23a19.46,19.46,0,0,1-8,11.11l-38.9,22.93a9.84,9.84,0,0,1-11.57-1.64l-16.71-17.71a5.71,5.71,0,0,1,1.3-9.23Z" style="mix-blend-mode:overlay" fill="#fff" opacity=".5"></path><path fill="#191468" d="M1296.49,486.58c3.54-2.09,5.74-.51,4.9,3.52l-7.63,36.22a19.42,19.42,0,0,1-8,11.11l-38.89,22.93a9.85,9.85,0,0,1-11.58-1.64L1218.6,541a5.71,5.71,0,0,1,1.3-9.23Z"></path><path fill="#0e0e49" d="M1294,525.43l-.19.89a13.61,13.61,0,0,1-.46,1.61l-57.16,31.54a9.85,9.85,0,0,1-.83-.75l-.58-.61Z"></path><polygon fill="#0e0e49" points="1230.37 553.48 1229.05 552.08 1296.13 515.07 1295.62 517.48 1230.37 553.48"></polygon><polygon fill="#0e0e49" points="1297.8 507.11 1224.68 547.46 1223.36 546.06 1298.31 504.7 1297.8 507.11"></polygon><path fill="#0e0e49" d="M1300.49,494.33l-.5,2.42-81,44.69-.39-.43a6.57,6.57,0,0,1-.82-1Z"></path><rect width="93.3" height="11.21" x="782.09" y="306.13" fill="url(#x)" transform="rotate(-64.87 828.765 311.737)"></rect><path fill="#191468" d="M670,245s200,154.21,334.87,233.24c6.41,4.1,9.22-1.16,7.64-5.77-13.68-39.87-61.74-164.57-166.18-212.75-103.1-47.56-156.13-30.3-175.14-23.61A5,5,0,0,0,670,245Z" opacity=".4"></path><polygon fill="url(#y)" points="1306.05 552.69 1238.06 591.94 1238.06 576.37 1306.05 537.12 1306.05 552.69"></polygon><g opacity=".4"><path fill="#191468" d="M1152.48 599.51c35.26 8.4 144.38-52.37 194.07-104.38v49.23c0 14.4-57.19 64.66-117.17 96.61s-106.52 17.38-123.9 11.77c0-42.75-10-70-24.24-87.68C1112 582.73 1138.22 596.11 1152.48 599.51zM646.34 347.77l-11.77-15.7V274.25c43.84 30.43 214.95 148.9 251.56 169.91 22.35 12.83 82.84 52.71 141.69 89-32.51-7.75-17.08 50.11-17.08 50.11s-245-150.81-265.17-160.9c-3.36-12.89-8.41-53.26-54.38-86.23S646.34 347.77 646.34 347.77z"></path></g><path fill="url(#z)" d="M1341,516.53a85.92,85.92,0,0,0,4.74-11.73l.79-.47v26.36c-1.24,1.8-2.54,3.65-3.91,5.53A139.87,139.87,0,0,0,1341,516.53Z"></path><path fill="url(#A)" d="M1178.85,624.62c5.8.62,14.81.19,27.42-3.48.85,3.66,1.22,8.36-.67,12.48-10.49,3.23-19.16,5.23-25.33,6.51C1160.91,644.16,1163.17,622.94,1178.85,624.62Z"></path><path fill="#191468" d="M961.72,522.35,958,519.64,954.16,517l-7.59-5.36Q939,506.28,931.31,501c-5.09-3.52-10.22-7-15.34-10.48l-15.39-10.39-15.46-10.3-3.88-2.56-1-.64-.23-.15-.24-.17-.49-.35c-.64-.45-1.3-.88-2-1.31a52.12,52.12,0,0,0-8.33-4.4,30.28,30.28,0,0,0-4.52-1.49,16.38,16.38,0,0,0-4.8-.51,9.13,9.13,0,0,0-4.69,1.47,8.87,8.87,0,0,0-3.07,3.8,16.28,16.28,0,0,0-1.17,4.61,33.39,33.39,0,0,0-.16,4.68,57.56,57.56,0,0,0,.48,9.28,32.55,32.55,0,0,1-.12-4.63l.18-4.64a31.56,31.56,0,0,1,.38-4.58,15.33,15.33,0,0,1,1.31-4.3,7.31,7.31,0,0,1,6.92-4.36,15.75,15.75,0,0,1,4.39.6,28.32,28.32,0,0,1,4.25,1.52,55.24,55.24,0,0,1,8,4.44c.63.42,1.26.85,1.88,1.3l.45.33.23.17.25.18,1,.65L884,471.4l15.41,10.39,15.46,10.31c5.18,3.4,10.34,6.84,15.54,10.21s10.38,6.75,15.59,10.1l7.85,5,3.92,2.49Z"></path><path fill="url(#f)" d="M992.57,572.05c-5.56-25.66-5.91-64.66,51.82-43.75,70.47,25.51,72,104.22,70.83,127.38-3.86-1-7.13-2.1-9.74-2.94,0-88.57-43.16-110.44-76.8-119.41s-17.94,49.9-17.94,49.9Z"></path><path fill="url(#B)" d="M755.52,427.9c-4.79-2.78-8.21-4.7-9.95-5.57-3.36-12.89-8.41-53.26-54.38-86.23s-44.85,11.67-44.85,11.67l-10.6-14.14C640,310.56,656,302.29,699,327.07,739.14,350.15,752.08,407.3,755.52,427.9Z"></path><path fill="#383097" d="M993.75,457.82s-41.49,29.37-41.3,14.87,27.1-28.17,31.58-29.63,8.79,6.7,8.79,6.7l3-1.35v8.41Z"></path><path fill="url(#c)" d="M638.34,361c0,25.3,20.51,57.65,45.81,72.26,20,11.57,37.07,8.53,43.28-5.81a8,8,0,0,1-4.65-2.34,9.53,9.53,0,0,1-2.47-6c-.09-.9-.19-1.8-.3-2.69-1-6.55-2.36-13-3.1-19.6.05.31.09.62.13.93-.22-1.85-.34-3.7-.53-5.55a17.1,17.1,0,0,0-.83-2.81c-1.46-3.18-3.3-6.18-4.71-9.38-1.1-2.5-2.26-5-3.52-7.38a11.71,11.71,0,0,1-.85-1.09c-1.29-1.92-2.48-3.9-3.83-5.78a20.73,20.73,0,0,0-2.06-2.13c-1.26-.84-2.6-1.54-3.89-2.32-1.8-1.07-3.58-2.19-5.35-3.33-3.47-2.25-6.87-4.61-10.26-7a12.7,12.7,0,0,1-2-1.67l-.52-.25c-4.85-1.87-10-2.84-15-4.05-3-.71-5.91-1.33-8.93-1.79a49.91,49.91,0,0,1-9.2-2l-.55-.21C640.8,345.44,638.34,352.2,638.34,361Zm16,9.24a20.85,20.85,0,0,1,2.34-10.25,13,13,0,0,1,6.39-5.79,17.47,17.47,0,0,1,9.48-.92,34,34,0,0,1,11.6,4.36,56.87,56.87,0,0,1,11.6,9,69.17,69.17,0,0,1,9.47,11.86,61.8,61.8,0,0,1,6.39,13.17A40.25,40.25,0,0,1,714,404.61a20.74,20.74,0,0,1-2.34,10.25,13,13,0,0,1-6.39,5.79,17.43,17.43,0,0,1-9.47.92,34,34,0,0,1-11.6-4.36,56.6,56.6,0,0,1-11.6-9,69.22,69.22,0,0,1-9.48-11.86,61.8,61.8,0,0,1-6.39-13.17A40.57,40.57,0,0,1,654.34,370.19Z"></path><path fill="#191468" d="M678,357.22a72.54,72.54,0,0,1,15,11.64,88,88,0,0,1,6.52,7.31,88.92,88.92,0,0,1,5.69,8,87.64,87.64,0,0,1,4.7,8.41,73.45,73.45,0,0,1,3.54,8.56,52.23,52.23,0,0,1,3,16.69,26.82,26.82,0,0,1-3,13.21,17.4,17.4,0,0,1-3.54,4.48,16.9,16.9,0,0,1-4.7,3,19.31,19.31,0,0,1-5.69,1.41,26.24,26.24,0,0,1-6.52-.22,43.54,43.54,0,0,1-15-5.62,72.94,72.94,0,0,1-14.95-11.65,87.81,87.81,0,0,1-6.52-7.3,91.23,91.23,0,0,1-5.7-8,84.14,84.14,0,0,1-4.69-8.4,74.3,74.3,0,0,1-3.54-8.57,52.16,52.16,0,0,1-3-16.69,26.85,26.85,0,0,1,3-13.21,17.52,17.52,0,0,1,3.54-4.47,16.27,16.27,0,0,1,4.69-3,19.47,19.47,0,0,1,5.7-1.42,26.26,26.26,0,0,1,6.52.23A43.54,43.54,0,0,1,678,357.22Zm0-12.47c-28.1-16.22-50.88-6.59-50.88,21.51s22.78,64,50.88,80.25,50.88,6.6,50.88-21.5S706.14,361,678,344.75Z"></path><path fill="#fff" d="M691.63,432.22a20.34,20.34,0,0,0,5.7,0,21.6,21.6,0,0,0,5.6-1.56s-13.16-5.45-16-11.14-6.23-14.83-6.23-14.83l-8.19,1.13a156.75,156.75,0,0,1,8.61,14.49C684.64,427.35,691.63,432.22,691.63,432.22Z"></path><path fill="#fff" d="M710.15,410.17a37.78,37.78,0,0,0-3.76-14.54s-12.24,4.75-17,3.43A108.7,108.7,0,0,1,676.76,394l2.88,11.31a54.51,54.51,0,0,1,11.8,1.76C697.31,408.72,710.15,410.17,710.15,410.17Z"></path><path fill="#fff" d="M686.52,369a53.32,53.32,0,0,0-6.46-4.65,39.55,39.55,0,0,0-6.51-3.36s-2.73,13-2.93,17.85a68,68,0,0,1-2,11.56l10.05,6.2a80.1,80.1,0,0,1-1-13.35C678,377.23,686.52,369,686.52,369Z"></path><path fill="#fff" d="M652 361.4a13.06 13.06 0 00-3 4.1 18.23 18.23 0 00-1.74 5.29s3 8.5 7.61 13 11.37 12.54 11.37 12.54l3.64-7.28a138.83 138.83 0 01-12.42-10.43C651.74 373.07 652 361.4 652 361.4zM654.34 406s2.7.61 5.91 4.76a75.42 75.42 0 015.32 7.83s-2.84-4.53 0-6.9 8.6-4.57 8.6-4.57L666 396.51a31.7 31.7 0 01-6.23 7.64C656.24 407.07 654.34 406 654.34 406zM705.23 387c.72 2.44 1.37 4.9 2 7.37a68.87 68.87 0 00-4.86-9.13A18.53 18.53 0 00705.23 387z"></path><path fill="#fff" d="M643.62,359.56a18.62,18.62,0,0,0,7.76-.19,25.07,25.07,0,0,0,5.78-2.43c2.24.08,4.48.36,6.74.39,2.68.05,5.35-.27,8-.29a38.48,38.48,0,0,0,9.89,3.73,18,18,0,0,0,1.65,4.23c-1.29-.9-2.6-1.74-3.91-2.5a36.58,36.58,0,0,0-12.5-4.69,18.62,18.62,0,0,0-10.21,1A14,14,0,0,0,650,365a22.48,22.48,0,0,0-2.52,11.05A43.69,43.69,0,0,0,650,390a67.08,67.08,0,0,0,6.89,14.19A74.59,74.59,0,0,0,667.06,417a60.72,60.72,0,0,0,12.5,9.74,36.51,36.51,0,0,0,12.5,4.69,18.63,18.63,0,0,0,10.21-1,14,14,0,0,0,6.88-6.23,22.37,22.37,0,0,0,2.52-11,38,38,0,0,0-.4-5.33c.5,1.71,1,3.44,1.31,5.21a45.39,45.39,0,0,1,0,6.06,50.25,50.25,0,0,1-2,7c-.46.92-1,1.83-1.53,2.72a15.44,15.44,0,0,0-2.45,9c-7,2.84-16.56,1.55-27.12-4.55-21.36-12.34-38.68-39.65-38.68-61A27.46,27.46,0,0,1,643.62,359.56Z"></path><path fill="url(#m)" d="M678,363.52a60.92,60.92,0,0,1,12.5,9.73A75.08,75.08,0,0,1,700.75,386a66.55,66.55,0,0,1,6.88,14.19,43.47,43.47,0,0,1,2.52,14,22.36,22.36,0,0,1-2.52,11,13.93,13.93,0,0,1-6.88,6.23,18.63,18.63,0,0,1-10.21,1,36.51,36.51,0,0,1-12.5-4.69,60.72,60.72,0,0,1-12.5-9.74,74.3,74.3,0,0,1-10.21-12.78A67.08,67.08,0,0,1,648.44,391a43.69,43.69,0,0,1-2.52-14,22.44,22.44,0,0,1,2.52-11,14.06,14.06,0,0,1,6.89-6.24,18.63,18.63,0,0,1,10.21-1,36.41,36.41,0,0,1,12.5,4.7Zm0-6.56c-21.36-12.34-38.68-5-38.68,16.34s17.32,48.68,38.68,61,38.68,5,38.68-16.35S699.4,369.29,678,357Z"></path><path fill="url(#C)" d="M654.34,403.59a48.91,48.91,0,0,0,4.72,7.18,61.42,61.42,0,0,0,5.85,6.61s-2.85-3.58-.31-5.73c2.86-2.4,8.6-4.57,8.6-4.57L665,396.51a31.7,31.7,0,0,1-6.23,7.64C655.23,407.07,654.34,403.59,654.34,403.59Z"></path><path fill="url(#D)" d="M691,432.73a20.28,20.28,0,0,0,5.69,0,12,12,0,0,0,5-1.75s-12.58-5.26-15.46-11-6.23-14.82-6.23-14.82l-8.19,1.12a157.15,157.15,0,0,1,8.6,14.5C684,427.86,691,432.73,691,432.73Z"></path><path fill="url(#p)" d="M710.15,411.05a33,33,0,0,0-1.13-7.37,33.62,33.62,0,0,0-2.63-7.17s-12.24,4.76-17,3.43a107.44,107.44,0,0,1-12.64-5l2.88,11.3a54.16,54.16,0,0,1,11.8,1.77C697.31,409.6,710.15,411.05,710.15,411.05Z"></path><path fill="url(#q)" d="M685.61,368.71a52,52,0,0,0-6.45-4.64,39.55,39.55,0,0,0-6.51-3.36s-2.74,13-2.93,17.85a67.55,67.55,0,0,1-2,11.55l10,6.2a80.1,80.1,0,0,1-.95-13.35C677.1,377,685.61,368.71,685.61,368.71Z"></path><path fill="url(#r)" d="M650.93,362.41a13.25,13.25,0,0,0-3,4.1,18.47,18.47,0,0,0-1.73,5.29s3,8.5,7.61,13,11.37,12.53,11.37,12.53l3.64-7.28a137.14,137.14,0,0,1-12.43-10.42C650.73,374.09,650.93,362.41,650.93,362.41Z"></path><path fill="#fff" d="M662.93,392c0,6,4.83,13.58,10.78,17s10.79,1.39,10.79-4.56-4.83-13.58-10.79-17S662.93,386,662.93,392Z"></path><path fill="url(#s)" d="M661.91,393c0,6,4.83,13.58,10.79,17s10.79,1.4,10.79-4.56-4.83-13.58-10.79-17S661.91,387,661.91,393Z"></path><path fill="url(#E)" d="M672.45,405.06c-3.11-1.8-5.64-5.81-5.64-8.94a3.48,3.48,0,0,1,1.56-3.21c1.19-.69,2.86-.51,4.59.49,3.11,1.8,5.64,5.81,5.64,8.94a3.48,3.48,0,0,1-1.57,3.21,3.26,3.26,0,0,1-1.63.41A6,6,0,0,1,672.45,405.06Zm-3.57-11.27a2.51,2.51,0,0,0-1.06,2.33c0,2.81,2.3,6.43,5.14,8.06,1.4.81,2.7,1,3.57.49a2.53,2.53,0,0,0,1.06-2.33c0-2.81-2.31-6.43-5.14-8.06a5,5,0,0,0-2.44-.77A2.18,2.18,0,0,0,668.88,393.79Z"></path><path fill="#545488" d="M728.92,425c0-28.1-22.78-64-50.88-80.26-9.25-5.34-17.93-7.88-25.4-7.88a26.5,26.5,0,0,0-11.55,2.45l8-4.68a32.1,32.1,0,0,1,3.58-.19c8.11,0,17.31,2.84,26.61,8.2,13.92,8,27,21,36.81,36.48S731.34,411,731.34,425c0,8.25-1.91,15.32-5.55,20.69l-8.2,4.78C724.67,445.82,728.92,437.14,728.92,425Z"></path><path fill="url(#F)" d="M1002.33,586.7c0,25.3,20.51,57.64,45.8,72.25,20,11.57,37.08,8.53,43.29-5.81a8,8,0,0,1-4.65-2.33,9.57,9.57,0,0,1-2.48-6c-.08-.9-.18-1.8-.29-2.7-1-6.54-2.36-13-3.1-19.59l.12.92c-.22-1.85-.33-3.7-.52-5.55a18.47,18.47,0,0,0-.83-2.81c-1.47-3.18-3.3-6.18-4.71-9.38-1.1-2.5-2.27-5-3.52-7.37a10.36,10.36,0,0,1-.85-1.1c-1.29-1.91-2.49-3.9-3.83-5.77a20.92,20.92,0,0,0-2.07-2.14c-1.25-.83-2.59-1.54-3.88-2.31q-2.71-1.62-5.35-3.34c-3.47-2.25-6.88-4.6-10.26-7a12.78,12.78,0,0,1-2-1.67l-.53-.25c-4.84-1.87-10-2.85-15-4-3-.71-5.9-1.33-8.92-1.79a49.75,49.75,0,0,1-9.2-2.05l-.55-.21C1004.78,571.19,1002.33,578,1002.33,586.7Zm16,9.24a20.71,20.71,0,0,1,2.34-10.25,13,13,0,0,1,6.39-5.79,17.24,17.24,0,0,1,9.47-.92,33.76,33.76,0,0,1,11.6,4.36,56.19,56.19,0,0,1,11.6,9,69.29,69.29,0,0,1,9.48,11.87,62,62,0,0,1,6.39,13.16,40.62,40.62,0,0,1,2.34,13,20.82,20.82,0,0,1-2.34,10.25,13,13,0,0,1-6.39,5.79,17.28,17.28,0,0,1-9.48.92,33.83,33.83,0,0,1-11.6-4.36,56.46,56.46,0,0,1-11.6-9,69.24,69.24,0,0,1-9.47-11.87,62,62,0,0,1-6.39-13.16A40.34,40.34,0,0,1,1018.33,595.94Z"></path><path fill="#191468" d="M1042,583A72.62,72.62,0,0,1,1057,594.61a87.92,87.92,0,0,1,6.53,7.3,91.12,91.12,0,0,1,5.69,8,86.3,86.3,0,0,1,4.7,8.4,76.13,76.13,0,0,1,3.54,8.57,52.18,52.18,0,0,1,3,16.69,26.85,26.85,0,0,1-3,13.21,17.74,17.74,0,0,1-3.54,4.47,16.45,16.45,0,0,1-4.7,3,19.4,19.4,0,0,1-5.69,1.42,26.34,26.34,0,0,1-6.53-.23,43.57,43.57,0,0,1-14.94-5.62,72,72,0,0,1-15-11.64,86.19,86.19,0,0,1-6.52-7.31,89,89,0,0,1-5.7-8,87.64,87.64,0,0,1-4.7-8.41,77.1,77.1,0,0,1-3.54-8.56,52.23,52.23,0,0,1-3-16.69,26.82,26.82,0,0,1,3-13.21,17.84,17.84,0,0,1,3.54-4.48,16.9,16.9,0,0,1,4.7-3,19.38,19.38,0,0,1,5.7-1.41,26.26,26.26,0,0,1,6.52.22,43.69,43.69,0,0,1,15,5.62Zm0-12.46c-28.11-16.23-50.89-6.6-50.89,21.5s22.78,64,50.89,80.26,50.88,6.59,50.88-21.51-22.78-64-50.88-80.25Z"></path><path fill="url(#G)" d="M1042,589.26a60.93,60.93,0,0,1,12.49,9.74,74.35,74.35,0,0,1,10.22,12.78,67,67,0,0,1,6.88,14.19,43.69,43.69,0,0,1,2.52,13.95,22.44,22.44,0,0,1-2.52,11,14,14,0,0,1-6.88,6.24,18.66,18.66,0,0,1-10.22,1,36.29,36.29,0,0,1-12.49-4.7,60.66,60.66,0,0,1-12.5-9.73A74.59,74.59,0,0,1,1019.32,631a66.6,66.6,0,0,1-6.89-14.19,43.74,43.74,0,0,1-2.52-14,22.47,22.47,0,0,1,2.52-11,14,14,0,0,1,6.89-6.23,18.62,18.62,0,0,1,10.21-1,36.58,36.58,0,0,1,12.5,4.69Zm0-6.56c-21.37-12.33-38.68-5-38.68,16.35s17.31,48.67,38.68,61,38.67,5,38.67-16.34-17.31-48.68-38.67-61Z"></path><path fill="url(#H)" d="M1018.33,629.33a66.66,66.66,0,0,0,4.89,7.13,64.67,64.67,0,0,0,5.67,6.51s-3.18-3.2-.3-5.57,8.6-4.57,8.6-4.57L1029,622.26a31.85,31.85,0,0,1-6.22,7.63C1019.22,632.82,1018.33,629.33,1018.33,629.33Z"></path><path fill="url(#I)" d="M1054.85,658a19.09,19.09,0,0,0,5.66,0,13.73,13.73,0,0,0,4.9-1.47s-12.24-5-15.13-10.74-6.23-14.83-6.23-14.83l-8.18,1.13a157.15,157.15,0,0,1,8.6,14.5A33,33,0,0,0,1054.85,658Z"></path><path fill="url(#J)" d="M1074.14,636.8a33.8,33.8,0,0,0-1.13-7.38,33.37,33.37,0,0,0-2.63-7.16s-12.25,4.75-17,3.43a107.44,107.44,0,0,1-12.64-5l2.88,11.3a54.58,54.58,0,0,1,11.8,1.76C1061.3,635.35,1074.14,636.8,1074.14,636.8Z"></path><path fill="url(#K)" d="M1049.6,594.45a52.69,52.69,0,0,0-6.46-4.64,39.55,39.55,0,0,0-6.51-3.36s-2.73,13-2.93,17.85a66.69,66.69,0,0,1-2,11.55l10,6.21a80.22,80.22,0,0,1-1-13.35C1041.08,602.73,1049.6,594.45,1049.6,594.45Z"></path><path fill="url(#L)" d="M1014.92,588.16a13.25,13.25,0,0,0-3,4.1,18.37,18.37,0,0,0-1.73,5.28s3,8.51,7.61,13S1029.2,623,1029.2,623l3.64-7.27a138.83,138.83,0,0,1-12.42-10.43C1014.71,599.83,1014.92,588.16,1014.92,588.16Z"></path><path fill="url(#M)" d="M1025.9,618.75c0,6,4.83,13.57,10.79,17s10.79,1.4,10.79-4.56-4.83-13.57-10.79-17S1025.9,612.79,1025.9,618.75Z"></path><path fill="url(#N)" d="M1036.18,631.24c-3.3-1.91-5.89-6-5.89-9.38a3.94,3.94,0,0,1,1.82-3.64c1.34-.78,3.2-.6,5.09.49,3.3,1.91,5.89,6,5.89,9.38a3.94,3.94,0,0,1-1.82,3.64,3.7,3.7,0,0,1-1.88.48A6.57,6.57,0,0,1,1036.18,631.24ZM1033.12,620a2.1,2.1,0,0,0-.81,1.89c0,2.61,2.24,6.1,4.89,7.63,1.22.71,2.37.89,3.06.49a2.1,2.1,0,0,0,.81-1.89c0-2.61-2.24-6.1-4.89-7.63a4.56,4.56,0,0,0-2.19-.7A1.72,1.72,0,0,0,1033.12,620Z"></path><path fill="#d1d4f8" d="M1092.91,650.75c0-28.1-22.78-64-50.88-80.25-9.26-5.35-17.93-7.88-25.41-7.88a26.46,26.46,0,0,0-11.54,2.45l8-4.69a34.65,34.65,0,0,1,3.57-.19c8.12,0,17.32,2.84,26.62,8.21,13.92,8,27,21,36.81,36.47s15.28,31.84,15.28,45.88c0,8.25-1.91,15.33-5.56,20.7l-8.19,4.77C1088.66,671.57,1092.91,662.88,1092.91,650.75Z" opacity=".2"></path><path fill="url(#F)" d="M1002.33,586.7c0,25.3,20.51,57.64,45.8,72.25,20,11.57,37.08,8.53,43.29-5.81a8,8,0,0,1-4.65-2.33,9.57,9.57,0,0,1-2.48-6c-.08-.9-.18-1.8-.29-2.7-1-6.54-2.36-13-3.1-19.59l.12.92c-.22-1.85-.33-3.7-.52-5.55a18.47,18.47,0,0,0-.83-2.81c-1.47-3.18-3.3-6.18-4.71-9.38-1.1-2.5-2.27-5-3.52-7.37a10.36,10.36,0,0,1-.85-1.1c-1.29-1.91-2.49-3.9-3.83-5.77a20.92,20.92,0,0,0-2.07-2.14c-1.25-.83-2.59-1.54-3.88-2.31q-2.71-1.62-5.35-3.34c-3.47-2.25-6.88-4.6-10.26-7a12.78,12.78,0,0,1-2-1.67l-.53-.25c-4.84-1.87-10-2.85-15-4-3-.71-5.9-1.33-8.92-1.79a49.75,49.75,0,0,1-9.2-2.05l-.55-.21C1004.78,571.19,1002.33,578,1002.33,586.7Zm16,9.24a20.71,20.71,0,0,1,2.34-10.25,13,13,0,0,1,6.39-5.79,17.24,17.24,0,0,1,9.47-.92,33.76,33.76,0,0,1,11.6,4.36,56.19,56.19,0,0,1,11.6,9,69.29,69.29,0,0,1,9.48,11.87,62,62,0,0,1,6.39,13.16,40.62,40.62,0,0,1,2.34,13,20.82,20.82,0,0,1-2.34,10.25,13,13,0,0,1-6.39,5.79,17.28,17.28,0,0,1-9.48.92,33.83,33.83,0,0,1-11.6-4.36,56.46,56.46,0,0,1-11.6-9,69.24,69.24,0,0,1-9.47-11.87,62,62,0,0,1-6.39-13.16A40.34,40.34,0,0,1,1018.33,595.94Z"></path><path fill="#191468" d="M1042,583A72.62,72.62,0,0,1,1057,594.61a87.92,87.92,0,0,1,6.53,7.3,91.12,91.12,0,0,1,5.69,8,86.3,86.3,0,0,1,4.7,8.4,76.13,76.13,0,0,1,3.54,8.57,52.18,52.18,0,0,1,3,16.69,26.85,26.85,0,0,1-3,13.21,17.74,17.74,0,0,1-3.54,4.47,16.45,16.45,0,0,1-4.7,3,19.4,19.4,0,0,1-5.69,1.42,26.34,26.34,0,0,1-6.53-.23,43.57,43.57,0,0,1-14.94-5.62,72,72,0,0,1-15-11.64,86.19,86.19,0,0,1-6.52-7.31,89,89,0,0,1-5.7-8,87.64,87.64,0,0,1-4.7-8.41,77.1,77.1,0,0,1-3.54-8.56,52.23,52.23,0,0,1-3-16.69,26.82,26.82,0,0,1,3-13.21,17.84,17.84,0,0,1,3.54-4.48,16.9,16.9,0,0,1,4.7-3,19.38,19.38,0,0,1,5.7-1.41,26.26,26.26,0,0,1,6.52.22,43.69,43.69,0,0,1,15,5.62Zm0-12.46c-28.11-16.23-50.89-6.6-50.89,21.5s22.78,64,50.89,80.26,50.88,6.59,50.88-21.51-22.78-64-50.88-80.25Z"></path><path fill="#fff" d="M1055.62,658a20.25,20.25,0,0,0,5.69,0,21.37,21.37,0,0,0,5.61-1.57s-13.16-5.44-16-11.14-6.24-14.82-6.24-14.82l-8.18,1.12a157.15,157.15,0,0,1,8.6,14.5C1048.62,653.1,1055.62,658,1055.62,658Z"></path><path fill="#fff" d="M1074.14,635.91a37.9,37.9,0,0,0-3.76-14.54s-12.25,4.76-17,3.43a107.44,107.44,0,0,1-12.64-5l2.88,11.3a54.24,54.24,0,0,1,11.8,1.77C1061.3,634.46,1074.14,635.91,1074.14,635.91Z"></path><path fill="#fff" d="M1050.51,594.7a52.69,52.69,0,0,0-6.46-4.64,39.55,39.55,0,0,0-6.51-3.36s-2.73,13-2.93,17.85a67.33,67.33,0,0,1-2,11.55l10,6.21a79.6,79.6,0,0,1-.94-13.36C1042,603,1050.51,594.7,1050.51,594.7Z"></path><path fill="#fff" d="M1015.93 587.14a13.23 13.23 0 00-3 4.11 18.37 18.37 0 00-1.73 5.28s3 8.51 7.61 13S1030.22 622 1030.22 622l3.63-7.28a137.77 137.77 0 01-12.42-10.42C1015.73 598.82 1015.93 587.14 1015.93 587.14zM1018.33 631.7s2.7.62 5.91 4.76a76.11 76.11 0 015.32 7.84s-2.84-4.53 0-6.9 8.6-4.57 8.6-4.57L1030 622.26a31.74 31.74 0 01-6.23 7.63C1020.23 632.82 1018.33 631.7 1018.33 631.7zM1069.22 612.73c.72 2.43 1.37 4.89 2 7.36a69.58 69.58 0 00-4.87-9.13A18.38 18.38 0 001069.22 612.73z"></path><path fill="#fff" d="M1007.6,585.3a18.34,18.34,0,0,0,7.77-.19,24.79,24.79,0,0,0,5.78-2.42c2.24.08,4.48.35,6.74.39,2.68,0,5.35-.28,8-.29a38.68,38.68,0,0,0,9.9,3.73,18.15,18.15,0,0,0,1.64,4.23c-1.29-.9-2.59-1.74-3.91-2.5a36.29,36.29,0,0,0-12.49-4.7,18.76,18.76,0,0,0-10.22,1,14,14,0,0,0-6.88,6.24,22.44,22.44,0,0,0-2.52,11,43.74,43.74,0,0,0,2.52,14,67,67,0,0,0,6.88,14.18,74.35,74.35,0,0,0,10.22,12.78,60.59,60.59,0,0,0,12.49,9.74,36.41,36.41,0,0,0,12.5,4.7,18.71,18.71,0,0,0,10.21-1,14,14,0,0,0,6.89-6.24,22.44,22.44,0,0,0,2.52-11,36.59,36.59,0,0,0-.41-5.34c.5,1.72,1,3.45,1.31,5.21a43.92,43.92,0,0,1,0,6.07,48.74,48.74,0,0,1-1.94,7,29.19,29.19,0,0,1-1.54,2.72,15.54,15.54,0,0,0-2.45,9c-7,2.83-16.55,1.54-27.12-4.56-21.36-12.33-38.67-39.64-38.67-61A27.63,27.63,0,0,1,1007.6,585.3Z"></path><path fill="url(#G)" d="M1042,589.26a60.93,60.93,0,0,1,12.49,9.74,74.35,74.35,0,0,1,10.22,12.78,67,67,0,0,1,6.88,14.19,43.69,43.69,0,0,1,2.52,13.95,22.44,22.44,0,0,1-2.52,11,14,14,0,0,1-6.88,6.24,18.66,18.66,0,0,1-10.22,1,36.29,36.29,0,0,1-12.49-4.7,60.66,60.66,0,0,1-12.5-9.73A74.59,74.59,0,0,1,1019.32,631a66.6,66.6,0,0,1-6.89-14.19,43.74,43.74,0,0,1-2.52-14,22.47,22.47,0,0,1,2.52-11,14,14,0,0,1,6.89-6.23,18.62,18.62,0,0,1,10.21-1,36.58,36.58,0,0,1,12.5,4.69Zm0-6.56c-21.37-12.33-38.68-5-38.68,16.35s17.31,48.67,38.68,61,38.67,5,38.67-16.34-17.31-48.68-38.67-61Z"></path><path fill="url(#O)" d="M1018.33,629.33a47.88,47.88,0,0,0,4.72,7.18,60.2,60.2,0,0,0,5.85,6.61s-2.85-3.58-.31-5.72c2.85-2.4,8.6-4.57,8.6-4.57L1029,622.26a31.85,31.85,0,0,1-6.22,7.63C1019.22,632.82,1018.33,629.33,1018.33,629.33Z"></path><path fill="url(#P)" d="M1055,658.47a20.25,20.25,0,0,0,5.69,0,12,12,0,0,0,5-1.75s-12.58-5.26-15.47-11-6.23-14.83-6.23-14.83l-8.18,1.13a157.15,157.15,0,0,1,8.6,14.5C1048,653.6,1055,658.47,1055,658.47Z"></path><path fill="url(#J)" d="M1074.14,636.8a33.8,33.8,0,0,0-1.13-7.38,33.37,33.37,0,0,0-2.63-7.16s-12.25,4.75-17,3.43a107.44,107.44,0,0,1-12.64-5l2.88,11.3a54.58,54.58,0,0,1,11.8,1.76C1061.3,635.35,1074.14,636.8,1074.14,636.8Z"></path><path fill="url(#K)" d="M1049.6,594.45a52.69,52.69,0,0,0-6.46-4.64,39.55,39.55,0,0,0-6.51-3.36s-2.73,13-2.93,17.85a66.69,66.69,0,0,1-2,11.55l10,6.21a80.22,80.22,0,0,1-1-13.35C1041.08,602.73,1049.6,594.45,1049.6,594.45Z"></path><path fill="url(#L)" d="M1014.92,588.16a13.25,13.25,0,0,0-3,4.1,18.37,18.37,0,0,0-1.73,5.28s3,8.51,7.61,13S1029.2,623,1029.2,623l3.64-7.27a138.83,138.83,0,0,1-12.42-10.43C1014.71,599.83,1014.92,588.16,1014.92,588.16Z"></path><path fill="#fff" d="M1026.91,617.73c0,6,4.83,13.58,10.79,17s10.79,1.4,10.79-4.56-4.83-13.58-10.79-17S1026.91,611.78,1026.91,617.73Z"></path><path fill="url(#M)" d="M1025.9,618.75c0,6,4.83,13.57,10.79,17s10.79,1.4,10.79-4.56-4.83-13.57-10.79-17S1025.9,612.79,1025.9,618.75Z"></path><path fill="url(#Q)" d="M1036.44,630.8c-3.12-1.79-5.65-5.8-5.65-8.94a3.51,3.51,0,0,1,1.57-3.21c1.19-.68,2.86-.5,4.58.49,3.11,1.8,5.65,5.81,5.65,9a3.48,3.48,0,0,1-1.57,3.2,3.19,3.19,0,0,1-1.63.41A6,6,0,0,1,1036.44,630.8Zm-3.57-11.27a2.52,2.52,0,0,0-1.07,2.33c0,2.81,2.31,6.43,5.14,8.07,1.41.81,2.71,1,3.57.49a2.52,2.52,0,0,0,1.06-2.33c0-2.81-2.3-6.43-5.13-8.07a5.05,5.05,0,0,0-2.44-.77A2.28,2.28,0,0,0,1032.87,619.53Z"></path><path fill="#545488" d="M1092.91,650.75c0-28.1-22.78-64-50.88-80.25-9.26-5.35-17.93-7.88-25.41-7.88a26.46,26.46,0,0,0-11.54,2.45l8-4.69a34.65,34.65,0,0,1,3.57-.19c8.12,0,17.32,2.84,26.62,8.21,13.92,8,27,21,36.81,36.47s15.28,31.84,15.28,45.88c0,8.25-1.91,15.33-5.56,20.7l-8.19,4.77C1088.66,671.57,1092.91,662.88,1092.91,650.75Z"></path><path fill="#191468" d="M803.55,456.91l1-.05c0-.48-2.54-48.34-2.54-69.46,0-21,7.38-33,7.45-33.1l0-.06,41.85-92.12-.92-.42L808.6,353.79c-.43.71-7.6,12.87-7.6,33.61C801,408.54,803.53,456.43,803.55,456.91Z"></path><path d="M483.59,718.47a58.3,58.3,0,0,1,9.87-5.39s.11-.05.11-.05a69.45,69.45,0,0,1,12.42-4L613,674.9a69.58,69.58,0,0,1,12.76-4.08l.09,0c19.19-4.17,40.94-1.08,56.08,9.3,21.68,14.87,21.57,39.06-.24,54a60.2,60.2,0,0,1-14.43,7.17l-.43.14c-.81.27-1.62.53-2.44.78L550.2,778.55a69.61,69.61,0,0,1-8.54,2.72l-.08,0c-19.69,4.89-42.53,2-58.24-8.81C461.66,757.62,461.77,733.44,483.59,718.47Z" style="mix-blend-mode:multiply" fill="url(#R)" opacity=".5"></path><path d="M268.73,813a64.9,64.9,0,0,1,10.39-4.78s.12-.05.12-.05a84,84,0,0,1,13.08-3.51L405,774.35a84.87,84.87,0,0,1,13.45-3.62l.09,0c20.21-3.69,43.13-1,59.08,8.25,22.83,13.18,22.72,34.63-.26,47.89a68.69,68.69,0,0,1-15.2,6.35l-.45.13c-.85.24-1.71.47-2.57.69L338.89,866.24a83.07,83.07,0,0,1-9,2.41l-.08,0c-20.74,4.33-44.8,1.74-61.34-7.81C245.63,847.69,245.75,826.24,268.73,813Z" style="mix-blend-mode:multiply" fill="url(#S)" opacity=".5"></path><path fill="#ff5a72" d="M545.1,476.82a25.69,25.69,0,0,1-8.91-9.37,25.37,25.37,0,0,1-3.68-12.36c0-4,1.38-7,3.91-8.46s5.88-1.16,9.39.87a27.68,27.68,0,0,1,12.59,21.72c0,4-1.39,7-3.91,8.46a7,7,0,0,1-3.54.92A11.91,11.91,0,0,1,545.1,476.82Zm-8-29c-2.06,1.2-3.2,3.77-3.2,7.24,0,7.52,5.33,16.72,11.89,20.5,3.06,1.77,5.89,2.07,8,.87s3.21-3.76,3.21-7.24c0-7.52-5.33-16.71-11.89-20.5a10.46,10.46,0,0,0-5.14-1.59A5.66,5.66,0,0,0,537.12,447.85Z"></path><g style="isolation:isolate"><polygon fill="#f4f4fc" points="551.42 487.64 546.44 484.74 546.54 519.34 551.52 522.24 551.42 487.64"></polygon><polygon fill="#fff" points="557.16 486.63 552.17 483.73 546.44 484.74 551.42 487.64 557.16 486.63"></polygon><path fill="url(#T)" d="M551.42,487.64l.1,34.6c.56-.32,5.6-3.37,5.71-8.82L555,510.1l2.19-4.71L555,502.9l2.19-6.32L555,493.44l2.18-6.81Z"></path></g><g style="isolation:isolate"><path fill="url(#U)" d="M549.34,476.81c1.69-1,3.06-2.77,3-4a1,1,0,0,0-.47-.93l5,2.9a1,1,0,0,1,.48.92c0,1.25-1.36,3-3,4a2.84,2.84,0,0,1-2.6.45l-5-2.9A2.8,2.8,0,0,0,549.34,476.81Z"></path><path fill="#ff5a72" d="M536.42,446.63c2.54-1.47,5.88-1.16,9.39.87a27.68,27.68,0,0,1,12.59,21.72c0,4-1.39,7-3.91,8.46a7,7,0,0,1-3.54.92h-.42a6.08,6.08,0,0,0,.67-1.41,5.56,5.56,0,0,0,2.58-.72c2.07-1.19,3.21-3.76,3.21-7.24,0-7.52-5.33-16.71-11.89-20.5a10.46,10.46,0,0,0-5.14-1.59,5.66,5.66,0,0,0-2.84.72c-2.06,1.2-3.2,3.77-3.2,7.24,0,5.77,3.15,12.53,7.57,17.07a6.26,6.26,0,0,0-.72,1.29,28.72,28.72,0,0,1-4.58-6,25.37,25.37,0,0,1-3.68-12.36C532.51,451.09,533.89,448.08,536.42,446.63Z"></path><path fill="url(#V)" d="M549.31,467.7c2.06-1.19,4-1.24,5.47-.36l5,2.9c-1.51-.88-3.41-.83-5.47.36-4.91,2.83-8.87,11-8.85,18.33,0,4.24,1.37,7.23,3.46,8.44l-5-2.89c-2.09-1.22-3.44-4.21-3.45-8.44C540.45,478.74,544.41,470.53,549.31,467.7Z"></path><path fill="url(#W)" d="M563.22,478.68c0,7.29-3.94,15.5-8.85,18.33s-8.89-.78-8.92-8.08,3.94-15.5,8.85-18.33S563.2,471.38,563.22,478.68Zm-8.89,1c1.69-1,3-2.77,3-4s-1.38-1.45-3.07-.48-3.06,2.78-3,4,1.37,1.46,3.07.48Z"></path></g><path fill="#ff5a72" d="M536.42,446.63c2.54-1.47,5.88-1.16,9.39.87a27.68,27.68,0,0,1,12.59,21.72c0,3.17-.87,5.71-2.48,7.35a5,5,0,0,0-.55-1.52,9.52,9.52,0,0,0,1.62-5.83c0-7.52-5.33-16.71-11.89-20.5a10.46,10.46,0,0,0-5.14-1.59,5.66,5.66,0,0,0-2.84.72c-2.06,1.2-3.2,3.77-3.2,7.24,0,5.77,3.15,12.53,7.57,17.07a6.26,6.26,0,0,0-.72,1.29,28.72,28.72,0,0,1-4.58-6,25.37,25.37,0,0,1-3.68-12.36C532.51,451.09,533.89,448.08,536.42,446.63Z"></path><path fill="#fdd1d0" d="M436.72,468.67a4.94,4.94,0,0,0,.24-1.6,9.52,9.52,0,0,0,1.29-2.2c1.86-4.48,8.25-15.76,10.27-14.17,1.24,1,.39,2.23-.17,3.78C453.24,450.1,459,447,463.83,450l.09.06a5.41,5.41,0,0,1,2.12,2.15c2.29,4.08-2.2,9.28-10.16,14.47a158.94,158.94,0,0,0-14.2,10.68C438.84,475.08,435.7,471.9,436.72,468.67Z"></path><path fill="url(#X)" d="M368.21,478.36c-3.53,10.45-10.9,22.62,8.9,22.09s60-20.81,65.3-23.22,2.06-15.14-3.19-14.57c-13,1.41-47.81,5.69-68.91,8.37A28.85,28.85,0,0,1,368.21,478.36Z"></path><path fill="url(#Y)" d="M387.36,393.41c-6.7-1.92-23.06,1.43-24.65,40.95s-.93,61.13,2.43,63.37,26,12.8,29.08-25.05C396.14,449.19,408.16,399.37,387.36,393.41Z"></path><path fill="#0a0a71" d="M439.54 799.58c12.35-6.67 31.88-3.71 42.75-3.21s10.63 9.88 2.48 15.32-19.53 9.14-30.16 13.1-26.44 7.66-26.44-6.43S439.54 799.58 439.54 799.58zM384.42 776.66c12.35-6.68 31.88-3.71 42.75-3.22s10.63 9.89 2.47 15.33-19.52 9.14-30.15 13.1-26.44 7.66-26.44-6.43S384.42 776.66 384.42 776.66z"></path><path fill="url(#Z)" d="M461,419c-17-13.23-86.55-53.28-92-2.91s2.92,125.72,2,135.38,41.62,40.18,85.28,21.25C457.18,551.82,485,437.58,461,419Z"></path><path fill="url(#h)" d="M382,783c7.34,14.69,21.61-.29,21.61-.29L416,690.53,418.06,622l11.59,81.53s5.92,90.15,7.47,104.45c8.63,10.43,19.45,1.41,19.45,1.41l6.82-103.93V527L371,551.2l12.12,139.72S379.7,760.62,382,783Z"></path><path fill="url(#aa)" d="M468,495.28c-4.07,33.4-11.17,67-11.56,77.41-43.66,18.93-86.16-11.59-85.28-21.25.7-7.66-4.39-56.57-3.83-101.61a16.06,16.06,0,0,0,2.29-5.57,103.9,103.9,0,0,1,19.58-52.47c5.57-.91,8.14-1.15,14.7.34a51,51,0,0,0-6.89,5c-3.64,3-12.14,14.94-12.14,41.73,9.53,11.59,33,10.56,33,10.56,4.27-31.13,14.67-36.29,21.69-44,3.16,1.68,6.14,3.38,8.88,5-11.31,13.45-14.72,43-13.37,57.23C436.21,480.38,458.35,491.17,468,495.28Z"></path><path fill="#f4bebe" d="M443.62,389.16a13.6,13.6,0,0,0-5,16c-10.33.68-22.38,3.88-30.39-2.32-11.9-9.19-4.89-8.75-1.8-12.62,4.44-5.55,1.7-9.43,1.7-9.43Z"></path><path fill="#fdd1d0" d="M458.24,347.61s-3.25,24.62-7.53,35.27-8,14-20.39,8.29S397.67,365.22,403,355.86,438.5,317.21,458.24,347.61Z"></path><path fill="#0a0a71" d="M465,346.11c-1.49,10.89-9.84,13.61-15,16l-5.1,2.4s0,14.67-12.73,21.86-18.22,5.15-26.43-2.27-10.76-19.7-7.23-30.78,9.6-32.49,32.44-31.83S467.34,329,465,346.11Z"></path><path fill="#fdd1d0" d="M442.3,376s1-9.49-4.57-7.29-8.62,10.81-3.74,14.6S443.5,384.21,442.3,376Z"></path><path fill="url(#i)" d="M456.23,356.88,478,345.6s15.12-5.41,5.23-17.71-18.14-12.42-23.62-10.42-18.9,5.13-18.9,5.13Z"></path><path fill="url(#ab)" d="M448.75,363.74c-10.59,5-25.82,11.74-45.41-3-17.27-13,2.73-40.38,17.5-43,9-1.59,32.05-4.5,41.4,15.37S448.75,363.74,448.75,363.74Z"></path><path fill="#fdd1d0" d="M529,460a4.84,4.84,0,0,0,.47-1.54,9.85,9.85,0,0,0,1.59-2c2.49-4.17,10.44-14.41,12.21-12.54,1.09,1.15.07,2.26-.71,3.71,2.74-1.94,3.18-2.7,7.54,1l.07.07a5.34,5.34,0,0,1,1.79,2.43c1.68,4.37.55,7.59-3.72,9.7-6.22,3.08-12.63,6.69-15.59,8.52C530.16,466.67,527.52,463.07,529,460Z"></path><path fill="url(#ac)" d="M473.93,501.93c1.53,10.92.4,25.1,17.85,15.76s44.34-45.5,48-50-4.94-14.47-9.38-11.6c-11,7.08-40.18,26.51-57.85,38.36A29.44,29.44,0,0,1,473.93,501.93Z"></path><path fill="url(#ad)" d="M450.92,418.24c-6.81,1.47-19.65,12.15-2.39,47.73s28,54.33,32.06,54.72,28.94-1,13.8-35.81C485,463.27,472.07,413.67,450.92,418.24Z"></path><path fill="url(#j)" d="M601.33,301.48c6.44-1,21.26,4,18.22,40.85s-6.13,56.9-9.51,58.59-25.6,8.92-24.14-26.59C586.8,352.29,581.33,304.64,601.33,301.48Z"></path><path fill="#f4bebe" d="M581.91,440.89a10.79,10.79,0,0,1-2.09,9c-3.38,4.2-11,16.43-8.37,17.56s3-3.55,6.74-4.05c1.86-.42-1.23,8.33-1.89,11.66s.78,8.59,6,8.67,10.54-6.56,11.37-17.09.7-22.29.7-22.29Z"></path><path fill="url(#ae)" d="M592.68,378.88c9.6-3.78,20.63-11.24,21.06,7.29s-16.66,57.09-18.66,62.13S581,450.93,581.3,446c.72-12.22,3.1-45,4.62-64.81A27.37,27.37,0,0,0,592.68,378.88Z"></path><path fill="#0a0a71" d="M635.15 671s4.5 7.57-.38 14.08-26 20.67-44.12 22.66-4.64-17.18 3.14-25.31 16.15-16.52 19.4-17.6S627.74 662.84 635.15 671zM671.14 688.27s16.39 2.32 4.55 30.53C668.35 736.27 653 741.33 648 734.46s2.42-46.22 7.6-46.47C665.54 687.52 666.62 683.57 671.14 688.27z"></path><path fill="url(#af)" d="M610.68,669.66c6.87,13.74,20.23-.27,20.23-.27l.63-90.87,2.53-48.1,9.34,60.13s9.75,91.28,11.2,104.66c8.07,9.76,18.2,1.33,18.2,1.33l1.07-109.17V460.75L594,447.63l6.85,131.25S608.51,648.68,610.68,669.66Z"></path><path fill="url(#ag)" d="M678.19,323.87c-16-12.39-81-49.87-86.07-2.72s2.73,117.66,1.9,126.7,39,37.61,79.83,19.89C674.57,448.21,700.61,341.29,678.19,323.87Z"></path><path fill="url(#ah)" d="M670.35,322.48c6.52.12,20.25,7.59,10.88,43.39s-15.88,55-19.5,56.07-26.76,4.35-19.18-30.37C647.25,370,650.1,322.14,670.35,322.48Z"></path><path fill="#fdd1d0" d="M598.43,434.51a10.8,10.8,0,0,1-8.1,4.38c-5.39.26-19.59,2.67-18.69,5.39s4.66-.1,7.49,2.35c1.55,1.12-7,4.61-10,6.33s-5.92,6.28-2.52,10.22,11.9,3.53,20.33-2.84,17.14-14.26,17.14-14.26Z"></path><path fill="url(#ai)" d="M652,401.43c9.2,4.68,22.1,8,8.52,20.6s-53.77,25.4-58.87,27.24-11.3-8.77-7.42-11.83c9.62-7.57,35.7-27.51,51.56-39.54A27.2,27.2,0,0,0,652,401.43Z"></path><path fill="#bdc1e6" d="M610.53,323.23c-1.46-12.86,6-18,6-18h28.94c3.74,1.58,7.39,3.32,10.85,5.11.66,2.9-.22,7-5.75,12.39-12,11.67-31.79,23.87-31.79,23.87A60.84,60.84,0,0,1,610.53,323.23Z"></path><path fill="#f4bebe" d="M647.21,291.15s.4,13.83,5.3,18.68c1.08,4.22-5.79,18.44-19.41,19.89s-22.18-10.25-19.4-14.34,2.65-18.33,2.65-18.33Z"></path><path fill="#fdd1d0" d="M652.63,241.12c-6.4-6.71-20.49-6.51-30.14-1.2s-16.15,19-16.87,30.61-1,30.14,7.23,35.2,35.92-4.34,41.23-25.31S657.69,246.42,652.63,241.12Z"></path><path fill="#feae6e" d="M605.32,249.14c3.65-18.77,34.35-17,40.68-15.73s15.91,7.59,16.46,25.13a40.93,40.93,0,0,1-10.67,28.57,5.15,5.15,0,0,1-.9,1,32.66,32.66,0,0,1-3.22,4.57l-.53-4.26a8,8,0,0,1-2.27-2.67c-.37-.64-5.21-2.53-5.56-3-2.35-2.89,0-23.14,0-23.15l-18.62.18C601.34,260,605.32,249.14,605.32,249.14Z"></path><path fill="#fdd1d0" d="M641.24,283.67s1.45-8.74,6.69-8.8,6.69,8.08.66,12.6S641,286,641.24,283.67Z"></path><path fill="#f4bebe" d="M644.48,324.81s-22,15.53-24.93,17.52c-5.18-8.62-6.38-25.11-6.38-25.11Z"></path><path d="M1102.43,955.31,945,998c-2.2.66-5.37,1.13-9.11,2.26-7.41,2.23-11-1.68-11-1.68s-84.42-43.23-92.38-52.17c-3.87-4.35-4.81-7.54-4.74-9.67a8.9,8.9,0,0,1,2.81-2.43,14.91,14.91,0,0,1,1.93-.92,18,18,0,0,1,3.48-1l158.61-43a22.76,22.76,0,0,1,7.18-.34,6.54,6.54,0,0,1,2.75.93l98.17,58.1a7.31,7.31,0,0,1,3.53,5.57v.5A16.12,16.12,0,0,1,1102.43,955.31Z" style="mix-blend-mode:multiply" fill="url(#aj)" opacity=".5"></path><path fill="url(#ak)" d="M983,737.86l28.13-16.29a3.88,3.88,0,0,1,4,.35l18,10.42a30.63,30.63,0,0,1,6.26,5.3,4,4,0,0,1,3.75.48L1079.31,759c3.06,1.76,7,6.37,8.82,10.24l9.5,20.5a8.5,8.5,0,0,1,.89,3.14L1115,802.4a12.28,12.28,0,0,1,5.55,9.58V941.67c0,1.8-.66,3.05-1.71,3.6l-27.52,15.84L1073,920.57l-57.9-33.43a12.28,12.28,0,0,1-5.55-9.57v-97.2Z"></path><path fill="#e5284c" d="M1041.22,771.35c3.41,1.63,6.89,3.15,10.19,5,1.77,1,3.47,2.16,5.24,3.16a34.39,34.39,0,0,0,3,7.74c1.28,2.48,2.85,4.79,4.21,7.23a10.1,10.1,0,0,0,.73,1.38L1049.22,787a36,36,0,0,1-9.82-9.74l-6.35-9.74Z"></path><path fill="url(#al)" d="M981.92,741V893.48a12.28,12.28,0,0,0,5.55,9.57l99.92,57.69c3,1.76,5.55.34,5.55-3.17V827.88a12.28,12.28,0,0,0-5.55-9.57l-16.51-9.53a8.5,8.5,0,0,0-.89-3.14l-9.5-20.5c-1.8-3.87-5.76-8.48-8.82-10.24L1015.52,754a4,4,0,0,0-3.75-.48,30.63,30.63,0,0,0-6.26-5.3l-18-10.42C984.42,736.07,981.92,737.49,981.92,741Zm79.82,62.5-21.24-12.26a35.85,35.85,0,0,1-9.82-9.74l-14.61-22.38,35.6,20.56a17.79,17.79,0,0,1,5.45,6.32l8.85,19.09Z"></path><path fill="#e5284c" d="M1029.14,885.41l-.14-.25L1047.69,896l-.14.08L1074,936.27l6.18,10.9.58-.63-26.46-49.75c1.18-.87,1.89-2.47,1.89-4.67V852.05a14.89,14.89,0,0,0-1.68-6.45l24.76-20.32.38-.17.59-.63-32.28,14,.06.1-18.83-10.87-32.33-51.36-.59.63,4.84,8.37.33.06,20.62,40.71c-1.41.78-2.28,2.48-2.28,4.92v40.06a15.45,15.45,0,0,0,2.23,7.47l-26.15,19-.58.63,7-2.95Zm22.92,4.3c0,2.2-1.56,3.09-3.47,2l-21.15-12.21a7.66,7.66,0,0,1-3.47-6V833.43c0-2.19,1.56-3.08,3.47-2l21.15,12.21a7.68,7.68,0,0,1,3.47,6Z"></path><path fill="#ff5a72" d="M1028.56,886l-.14-.25,18.68,10.79-.14.08,33.25,50.51-26.46-49.76c1.17-.86,1.89-2.46,1.89-4.66V852.68a14.77,14.77,0,0,0-1.69-6.45l25.73-21.12-32.28,14,.07.1-18.84-10.87L996.3,777l25.2,49.77c-1.4.78-2.27,2.48-2.27,4.92v40.06a15.54,15.54,0,0,0,2.22,7.47l-26.14,19Zm-1.7-54L1048,844.29a7.67,7.67,0,0,1,3.46,6v40.06c0,2.2-1.55,3.08-3.46,2l-21.15-12.21a7.66,7.66,0,0,1-3.47-6V834.06C1023.39,831.86,1025,831,1026.86,832.08Z"></path><path fill="#d1d4f8" d="M1075.23,805V802.8l7.22,0a28.64,28.64,0,0,1,21.42.11l6.79,0v2c0,2.62-1.78,5.22-5.23,7.22-6.94,4-18.16,4-25,0C1076.92,810.27,1075.2,807.64,1075.23,805Z"></path><path fill="#f7f9fc" d="M1080.38,810.24c6.89,4,18.11,4,25,0s7-10.49.08-14.47-18.11-4-25,0S1073.48,806.26,1080.38,810.24Z"></path><path fill="url(#am)" d="M1077.21,801.8v-7.31l6.41,0a25.38,25.38,0,0,1,19,.1l6,0v7.15c0,2.32-1.57,4.63-4.64,6.4-6.16,3.56-16.12,3.58-22.24,0C1078.71,806.47,1077.19,804.14,1077.21,801.8Z"></path><path fill="url(#an)" d="M1081.79,801.09c6.12,3.54,16.08,3.52,22.24,0s6.19-9.31.07-12.84-16.08-3.52-22.24,0S1075.66,797.56,1081.79,801.09Z"></path></g></svg>